<?xml version="1.0" encoding="UTF-8" standalone="no"?><svg xmlns="http://www.w3.org/2000/svg" xmlns:xlink="http://www.w3.org/1999/xlink" fill="#cb6ce6" height="372.5" preserveAspectRatio="xMidYMid meet" version="1" viewBox="1069.7 608.3 408.7 372.5" width="408.7" zoomAndPan="magnify"><g><g><g id="change1_2"><path d="M1104.7678,978.0162L1104.7678,978.0162L1104.7678,978.0173L1100.7388,977.42145L1150.9397,811.42004L1150.8638,811.79114L1168.8341,648.16364C1168.8661,647.8717,1168.9603,647.58997,1169.1105,647.33746L1169.1105,647.33746L1191.5138,609.59937C1192.0941,608.6217,1193.357,608.2997,1194.3346,608.88007C1195.3124,609.46045,1195.6344,610.72345,1195.0541,611.7011L1195.0541,611.7011L1172.6505,649.4392L1172.9269,648.6131L1154.9565,812.2406C1154.9426,812.36646,1154.9172,812.4906,1154.8806,812.61176L1154.8806,812.61176L1104.6797,978.6132C1104.3843,979.59015,1103.4177,980.20306,1102.4082,980.0538C1101.3987,979.9045,1100.6506,979.0379,1100.6506,978.0173L1100.6506,978.0173L1100.6506,978.0162C1100.6506,976.8792,1101.5725,975.95746,1102.7092,975.95746C1103.8462,975.95746,1104.7678,976.8792,1104.7678,978.0162 Z"/></g><g id="change1_12"><path d="M1281.8245,978.01636L1281.8245,978.01636L1281.8245,978.01746L1285.8535,977.42163L1235.6525,811.4203L1235.7284,811.7914L1217.7579,648.1638C1217.726,647.8719,1217.6317,647.59015,1217.4816,647.33765L1217.4816,647.33765L1195.0782,609.5996C1194.4979,608.62195,1193.235,608.2999,1192.2574,608.8803C1191.2797,609.4607,1190.9576,610.7237,1191.538,611.70135L1191.538,611.70135L1213.9415,649.4394L1213.6652,648.6133L1231.6356,812.24084C1231.6495,812.3667,1231.6749,812.49084,1231.7115,812.612L1231.7115,812.612L1281.9126,978.6134C1282.208,979.59033,1283.1746,980.20325,1284.1841,980.05396C1285.1936,979.90466,1285.9417,979.0381,1285.9417,978.01746L1285.9417,978.01746L1285.9417,978.01636C1285.9417,976.8794,1285.0198,975.95764,1283.883,975.95764C1282.7461,975.95764,1281.8245,976.8794,1281.8245,978.01636 Z"/></g><g id="change1_10"><path d="M1104.8264,978.65265L1104.8264,978.65265L1104.8264,978.65375L1101.6106,976.95123L1251.6127,875.00653L1251.6627,878.44476L1152.6885,815.3172C1152.0872,814.9338,1151.7273,814.2665,1151.737,813.55347C1151.7468,812.84045,1152.1248,812.1833,1152.7363,811.8164L1152.7363,811.8164L1226.7527,767.4089L1226.7905,770.9615L1161.7585,733.80646C1161.1023,733.43146,1160.7041,732.72687,1160.7217,731.9711C1160.7393,731.21533,1161.1697,730.5301,1161.8428,730.186L1161.8428,730.186L1220.4369,700.23505L1220.4093,703.8867L1168.5206,676.3649C1167.8546,676.0117,1167.4349,675.32263,1167.4266,674.56885C1167.4183,673.815,1167.8229,673.11694,1168.4808,672.7492L1168.4808,672.7492L1213.0881,647.82446L1213.3689,651.5489L1178.7174,638.5437C1177.9801,638.267,1177.4655,637.5941,1177.3912,636.8102C1177.3173,636.0263,1177.6967,635.2688,1178.369,634.8589L1178.369,634.8589L1199.2247,622.1398C1200.1954,621.54785,1201.462,621.85486,1202.0541,622.82544C1202.6461,623.7961,1202.339,625.06287,1201.3685,625.6548L1201.3685,625.6548L1180.5126,638.3739L1180.164,634.689L1214.8157,647.6942C1215.5659,647.9759,1216.0847,648.66754,1216.145,649.4668C1216.2053,650.26605,1215.7961,651.02765,1215.0964,651.41864L1215.0964,651.41864L1170.4891,676.3434L1170.4496,672.72766L1222.3385,700.24945C1223.0165,700.60913,1223.4381,701.3161,1223.4325,702.0836C1223.4266,702.8512,1222.9943,703.55176,1222.3109,703.9011L1222.3109,703.9011L1163.7168,733.852L1163.801,730.23157L1228.8328,767.38666C1229.4675,767.74927,1229.8623,768.4212,1229.8701,769.1521C1229.8779,769.88306,1229.4976,770.56323,1228.8708,770.9393L1228.8708,770.9393L1154.8545,815.34686L1154.9023,811.84607L1253.8766,874.9736C1254.4603,875.3459,1254.8177,875.9869,1254.828,876.67914C1254.8383,877.3715,1254.4996,878.0225,1253.9269,878.4118L1253.9269,878.4118L1103.9248,980.3564C1103.294,980.785,1102.4783,980.8299,1101.8044,980.4731C1101.1306,980.1163,1100.709,979.4163,1100.709,978.65375L1100.709,978.65375L1100.709,978.65265C1100.709,977.5157,1101.6309,976.59393,1102.7676,976.59393C1103.9045,976.59393,1104.8264,977.5157,1104.8264,978.65265 Z"/></g><g id="change1_11"><path d="M1281.7654,978.6527L1281.7654,978.6527L1281.7654,978.6538L1284.9812,976.9513L1134.9791,875.0067L1134.9291,878.44495L1233.9032,815.3173C1234.5045,814.9339,1234.8644,814.2666,1234.8546,813.5536C1234.8448,812.8406,1234.4669,812.1834,1233.8553,811.8165L1233.8553,811.8165L1159.839,767.40906L1159.8011,770.9617L1224.8331,733.8066C1225.4894,733.4316,1225.8876,732.727,1225.87,731.97125C1225.8524,731.21545,1225.422,730.5302,1224.7489,730.1861L1224.7489,730.1861L1166.1548,700.2352L1166.1824,703.8869L1218.071,676.36505C1218.737,676.01184,1219.1567,675.32275,1219.165,674.569C1219.1733,673.8151,1218.7688,673.11707,1218.1108,672.7493L1218.1108,672.7493L1173.5035,647.82465L1173.2228,651.5491L1207.8743,638.5438C1208.6116,638.26715,1209.1262,637.59424,1209.2004,636.8103C1209.2744,636.0264,1208.895,635.2689,1208.2227,634.859L1208.2227,634.859L1187.367,622.1399C1186.3962,621.548,1185.1296,621.855,1184.5376,622.8256C1183.9456,623.79626,1184.2527,625.06305,1185.2231,625.6549L1185.2231,625.6549L1206.0791,638.374L1206.4277,634.68915L1171.776,647.6944C1171.0258,647.9761,1170.507,648.6677,1170.4467,649.467C1170.3864,650.26624,1170.7955,651.02783,1171.4952,651.4188L1171.4952,651.4188L1216.1025,676.3435L1216.1421,672.7278L1164.2532,700.24963C1163.5752,700.6093,1163.1536,701.3163,1163.1592,702.0838C1163.165,702.8514,1163.5974,703.55194,1164.2808,703.9013L1164.2808,703.9013L1222.8749,733.8521L1222.7906,730.2317L1157.7589,767.38684C1157.1241,767.74945,1156.7294,768.4214,1156.7216,769.1523C1156.7137,769.88324,1157.0941,770.5634,1157.7208,770.93945L1157.7208,770.93945L1231.7372,815.347L1231.6893,811.8462L1132.7152,874.97375C1132.1315,875.34607,1131.774,875.98706,1131.7638,876.6793C1131.7535,877.3717,1132.0922,878.0227,1132.6649,878.412L1132.6649,878.412L1282.667,980.35645C1283.2979,980.78503,1284.1135,980.82996,1284.7874,980.47314C1285.4612,980.11633,1285.8828,979.4164,1285.8828,978.6538L1285.8828,978.6538L1285.8828,978.6527C1285.8828,977.51575,1284.9609,976.594,1283.8242,976.594C1282.6873,976.594,1281.7654,977.51575,1281.7654,978.6527 Z"/></g><g id="change1_6"><path d="M1173.849,649.7723L1173.849,649.7723L1173.849,649.7735L1171.7872,647.7149L1193.7565,647.6817C1194.8934,647.68,1195.8164,648.6002,1195.8181,649.7371C1195.8198,650.87396,1194.8995,651.7971,1193.7628,651.7988L1193.7628,651.7988L1171.7936,651.83203C1171.247,651.8328,1170.7225,651.6164,1170.3358,651.2302C1169.9491,650.84406,1169.7318,650.32,1169.7318,649.7735L1169.7318,649.7735L1169.7318,649.7723C1169.7318,648.6354,1170.6534,647.71375,1171.7904,647.71375C1172.9274,647.71375,1173.849,648.6354,1173.849,649.7723 Z"/></g><g id="change1_34"><path d="M1212.7432,649.77234L1212.7432,649.77234L1212.7432,649.77356L1214.8049,647.71497L1192.8357,647.68176C1191.6987,647.68005,1190.7758,648.6003,1190.774,649.7372C1190.7723,650.874,1191.6926,651.7972,1192.8293,651.7989L1192.8293,651.7989L1214.7986,651.8321C1215.3452,651.8329,1215.8696,651.61646,1216.2563,651.2303C1216.6431,650.8441,1216.8604,650.32007,1216.8604,649.77356L1216.8604,649.77356L1216.8604,649.77234C1216.8604,648.63544,1215.9387,647.7138,1214.8018,647.7138C1213.6648,647.7138,1212.7432,648.63544,1212.7432,649.77234 Z"/></g><g id="change1_19"><path d="M1171.1307,659.3725L1171.1307,659.3725L1171.1307,659.37366C1171.1307,660.1568,1170.6864,660.872,1169.9845,661.21906L1169.9845,661.21906L1080.5542,705.43353L1079.6428,701.5296L1163.6771,701.5661C1164.8141,701.5666,1165.7355,702.48865,1165.735,703.62555C1165.7345,704.7624,1164.8124,705.68365,1163.6754,705.68317L1163.6754,705.68317L1079.6409,705.64667C1078.6848,705.64624,1077.8545,704.9874,1077.6372,704.0562C1077.4197,703.125,1077.8723,702.16656,1078.7295,701.74274L1078.7295,701.74274L1168.1595,657.5283L1167.0133,659.37366L1167.0133,659.3725C1167.0133,658.2356,1167.9352,657.31396,1169.0719,657.31396C1170.2089,657.31396,1171.1307,658.2356,1171.1307,659.3725 Z"/></g><g id="change1_1"><path d="M1215.4609,659.3725L1215.4609,659.3725L1215.4609,659.37366C1215.4609,660.1568,1215.9053,660.872,1216.6072,661.21906L1216.6072,661.21906L1306.0375,705.4335L1306.9489,701.52954L1222.9146,701.5661C1221.7776,701.5666,1220.8562,702.48865,1220.8567,703.62555C1220.8572,704.7624,1221.7793,705.68365,1222.9163,705.68317L1222.9163,705.68317L1306.9508,705.6466C1307.9069,705.6462,1308.7372,704.98737,1308.9545,704.05615C1309.172,703.12494,1308.7194,702.1665,1307.8622,701.7427L1307.8622,701.7427L1218.4321,657.5283L1219.5784,659.37366L1219.5784,659.3725C1219.5784,658.2356,1218.6565,657.31396,1217.5198,657.31396C1216.3828,657.31396,1215.4609,658.2356,1215.4609,659.3725 Z"/></g><g id="change1_27"><path d="M1169.4064,662.54083L1169.4064,662.54083L1169.4064,662.542C1169.4064,662.9297,1169.297,663.3095,1169.0907,663.63763L1169.0907,663.63763L1143.8005,703.86774C1143.4624,704.4055,1142.895,704.75714,1142.263,704.8204C1141.6306,704.88367,1141.0049,704.65155,1140.5667,704.1914L1140.5667,704.1914L1121.7694,684.4445L1124.932,684.22644L1110.8085,703.8805C1110.1451,704.8038,1108.8588,705.0143,1107.9354,704.3509C1107.0123,703.68744,1106.8016,702.4012,1107.4652,701.47784L1107.4652,701.47784L1121.5887,681.8239C1121.9464,681.3261,1122.5072,681.0136,1123.1188,680.97144C1123.7303,680.92926,1124.3287,681.16187,1124.7513,681.60583L1124.7513,681.60583L1143.5488,701.3528L1140.315,701.6765L1165.6051,661.4464L1165.2892,662.542L1165.2892,662.54083C1165.2892,661.40393,1166.211,660.48224,1167.3478,660.48224C1168.4847,660.48224,1169.4064,661.40393,1169.4064,662.54083 Z"/></g><g id="change1_20"><path d="M1217.185,662.5408L1217.185,662.5408L1217.185,662.54193C1217.185,662.9296,1217.2946,663.30945,1217.5009,663.6376L1217.5009,663.6376L1242.791,703.8677C1243.1292,704.40546,1243.6965,704.7571,1244.3286,704.8203C1244.9609,704.8836,1245.5867,704.6515,1246.0249,704.19135L1246.0249,704.19135L1264.8221,684.44446L1261.6595,684.2264L1275.7831,703.88043C1276.4464,704.8037,1277.7328,705.0142,1278.6561,704.3508C1279.5792,703.6874,1279.7899,702.4011,1279.1263,701.4778L1279.1263,701.4778L1265.0028,681.82385C1264.6451,681.32605,1264.0844,681.01355,1263.4728,680.9714C1262.8612,680.9292,1262.2628,681.1618,1261.8402,681.6058L1261.8402,681.6058L1243.0427,701.3527L1246.2766,701.67645L1220.9863,661.44635L1221.3022,662.54193L1221.3022,662.5408C1221.3022,661.4039,1220.3804,660.4822,1219.2437,660.4822C1218.1067,660.4822,1217.185,661.4039,1217.185,662.5408 Z"/></g><g id="change1_28"><path d="M1162.6072,730.1973L1162.6072,730.1973L1162.6072,730.1985C1162.6072,730.9725,1162.1731,731.681,1161.4836,732.03253L1161.4836,732.03253L1072.9078,777.1876L1071.9484,773.2951L1156.0627,772.2908C1157.1995,772.27716,1158.1321,773.1878,1158.1458,774.32465C1158.1594,775.4614,1157.2488,776.39417,1156.1118,776.4077L1156.1118,776.4077L1071.9977,777.41205C1071.0414,777.42346,1070.2032,776.77484,1069.9742,775.8463C1069.7452,774.9177,1070.1862,773.95386,1071.038,773.51953L1071.038,773.51953L1159.6138,728.36444L1158.49,730.1984L1158.49,730.19727C1158.49,729.06036,1159.4119,728.1387,1160.5486,728.1387C1161.6855,728.1387,1162.6072,729.0604,1162.6072,730.1973 Z"/></g><g id="change1_30"><path d="M1223.985,730.1974L1223.985,730.1974L1223.985,730.19855C1223.985,730.97253,1224.4191,731.6811,1225.1085,732.0326L1225.1085,732.0326L1313.6843,777.18756L1314.6438,773.29504L1230.5294,772.29083C1229.3927,772.2772,1228.4601,773.18787,1228.4464,774.3247C1228.4327,775.4615,1229.3434,776.3942,1230.4803,776.4078L1230.4803,776.4078L1314.5945,777.412C1315.5508,777.4234,1316.3889,776.7748,1316.6179,775.84625C1316.8469,774.91766,1316.406,773.9538,1315.5542,773.5195L1315.5542,773.5195L1226.9784,728.3645L1228.1022,730.1985L1228.1022,730.1973C1228.1022,729.0604,1227.1803,728.13873,1226.0436,728.13873C1224.9066,728.13873,1223.985,729.0605,1223.985,730.1974 Z"/></g><g id="change1_15"><path d="M1161.7439,732.65753L1161.7439,732.65753L1161.7439,732.6587C1161.7439,733.0291,1161.644,733.39264,1161.4546,733.71094L1161.4546,733.71094L1137.3018,774.3267C1136.9741,774.8776,1136.4084,775.24457,1135.772,775.31915C1135.1353,775.3938,1134.5002,775.16754,1134.0542,774.7074L1134.0542,774.7074L1114.8173,754.8619L1118.0629,754.48456L1105.5171,775.49146C1104.9341,776.4676,1103.6702,776.78625,1102.6941,776.2033C1101.7181,775.62036,1101.3993,774.35657,1101.9823,773.38043L1101.9823,773.38043L1114.528,752.3735C1114.8561,751.8238,1115.4218,751.4581,1116.0577,751.3842C1116.6937,751.31024,1117.328,751.53644,1117.7736,751.9962L1117.7736,751.9962L1137.0105,771.84174L1133.763,772.2223L1157.9161,731.6065L1157.6268,732.6587L1157.6268,732.65753C1157.6268,731.5206,1158.5483,730.5989,1159.6853,730.5989C1160.8223,730.5989,1161.7439,731.5206,1161.7439,732.65753 Z"/></g><g id="change1_5"><path d="M1224.8483,732.6576L1224.8483,732.6576L1224.8483,732.65875C1224.8483,733.0292,1224.9481,733.3927,1225.1376,733.711L1225.1376,733.711L1249.2904,774.3267C1249.618,774.8776,1250.1837,775.24457,1250.8202,775.31915C1251.4569,775.3938,1252.0919,775.16754,1252.538,774.7074L1252.538,774.7074L1271.7749,754.8619L1268.5293,754.48456L1281.0751,775.49146C1281.6581,776.4676,1282.922,776.78625,1283.8981,776.2033C1284.874,775.62036,1285.1929,774.35657,1284.6099,773.38043L1284.6099,773.38043L1272.0642,752.3735C1271.7361,751.8238,1271.1704,751.4581,1270.5344,751.3842C1269.8984,751.31024,1269.2642,751.53644,1268.8186,751.9962L1268.8186,751.9962L1249.5817,771.84174L1252.8292,772.2223L1228.676,731.60657L1228.9653,732.65875L1228.9653,732.6576C1228.9653,731.5207,1228.0438,730.59894,1226.9069,730.59894C1225.7699,730.59894,1224.8483,731.5207,1224.8483,732.6576 Z"/></g><g fill-opacity="0.996" id="change1_31"><path d="M1106.2885,704.94305Q1105.8209,709.7584,1105.9335,711.0072Q1106.0668,713.15686,1106.6879,714.5252Q1108.3336,718.2049,1112.131,718.03076Q1115.5311,717.644,1116.6976,713.85895Q1117.8815,710.2802,1116.6046,704.0581 Z"/></g><g fill-opacity="0.996" id="change1_29"><path d="M1280.3042,704.943Q1280.7717,709.75836,1280.6592,711.00714Q1280.5259,713.1568,1279.9048,714.52515Q1278.259,718.20483,1274.4617,718.0307Q1271.0615,717.6439,1269.895,713.8589Q1268.7112,710.28015,1269.988,704.05804 Z"/></g><g fill-opacity="0.996" id="change1_21"><path d="M1099.9728,776.48956Q1100.1315,782.7598,1100.2762,784.10394Q1100.4723,786.14197,1100.8602,787.0004Q1101.8842,789.4593,1105.3416,788.9717Q1106.9202,788.74036,1107.8267,788.1624Q1108.4092,787.77594,1108.6677,786.6131Q1109.4578,783.4696,1108.6147,775.29755 Z"/></g><g fill-opacity="0.996" id="change1_9"><path d="M1286.6184,776.48944Q1286.4597,782.7597,1286.315,784.1038Q1286.1189,786.14185,1285.731,787.0003Q1284.707,789.45917,1281.2496,788.97156Q1279.671,788.7403,1278.7645,788.16235Q1278.182,787.7759,1277.9235,786.61304Q1277.1334,783.46954,1277.9764,775.2975 Z"/></g></g><g><g id="change1_4"><path d="M1313.0515,958.8294L1313.0515,958.8294L1313.0515,958.8305L1309.9099,958.3659L1349.0544,828.92487L1348.9951,829.21423L1363.0078,701.62463C1363.033,701.397,1363.1062,701.17737,1363.223,700.9803L1363.223,700.9803L1380.6926,671.5539C1381.145,670.7916,1382.1298,670.5404,1382.8921,670.993C1383.6543,671.4455,1383.9053,672.43036,1383.4529,673.1926L1383.4529,673.1926L1365.9835,702.61914L1366.1989,701.975L1352.1862,829.5647C1352.1754,829.66284,1352.1556,829.75964,1352.1271,829.8541L1352.1271,829.8541L1312.9827,959.2952C1312.7522,960.05695,1311.9988,960.53485,1311.2114,960.4184C1310.4241,960.30206,1309.8411,959.6264,1309.8411,958.8305L1309.8411,958.8305L1309.8411,958.8294C1309.8411,957.9428,1310.5598,957.2242,1311.4463,957.2242C1312.3328,957.2242,1313.0515,957.9428,1313.0515,958.8294 Z"/></g><g id="change1_3"><path d="M1451.1128,958.8294L1451.1128,958.8294L1451.1128,958.8305L1454.2544,958.3659L1415.1099,828.92487L1415.1692,829.21423L1401.1565,701.62463C1401.1313,701.397,1401.0581,701.17737,1400.9413,700.9803L1400.9413,700.9803L1383.4717,671.5539C1383.0193,670.7916,1382.0345,670.5404,1381.2722,670.993C1380.51,671.4455,1380.259,672.43036,1380.7114,673.1926L1380.7114,673.1926L1398.1808,702.61914L1397.9655,701.975L1411.9781,829.5647C1411.9889,829.66284,1412.0087,829.75964,1412.0372,829.8541L1412.0372,829.8541L1451.1816,959.2952C1451.4121,960.05695,1452.1655,960.53485,1452.9529,960.4184C1453.7402,960.30206,1454.3232,959.6264,1454.3232,958.8305L1454.3232,958.8305L1454.3232,958.8294C1454.3232,957.9428,1453.6045,957.2242,1452.718,957.2242C1451.8315,957.2242,1451.1128,957.9428,1451.1128,958.8294 Z"/></g><g id="change1_36"><path d="M1313.0969,959.3256L1313.0969,959.3256L1313.0969,959.32684L1310.5894,957.9992L1427.5549,878.5071L1427.594,881.188L1350.4176,831.96375C1349.9489,831.6647,1349.6685,831.1445,1349.676,830.5885C1349.6836,830.0325,1349.9781,829.52,1350.455,829.23395L1350.455,829.23395L1408.1698,794.60675L1408.1993,797.37695L1357.4904,768.40515C1356.9786,768.11273,1356.6683,767.5633,1356.682,766.974C1356.6959,766.38477,1357.0314,765.8504,1357.5563,765.5821L1357.5563,765.5821L1403.2452,742.22766L1403.2235,745.075L1362.7632,723.6147C1362.2439,723.33923,1361.9165,722.80194,1361.9102,722.2142C1361.9038,721.6264,1362.219,721.0821,1362.7322,720.79535L1362.7322,720.79535L1397.5151,701.36005L1397.7344,704.26416L1370.714,694.1232C1370.1393,693.9075,1369.7377,693.3828,1369.68,692.7715C1369.6222,692.1602,1369.9181,691.5696,1370.4423,691.24994L1370.4423,691.24994L1386.7051,681.3323C1387.4619,680.87067,1388.4497,681.11005,1388.9114,681.86694C1389.3728,682.6238,1389.1335,683.6115,1388.3767,684.0731L1388.3767,684.0731L1372.1139,693.9908L1371.8419,691.11755L1398.8623,701.2584C1399.4475,701.4781,1399.852,702.01733,1399.8989,702.6406C1399.946,703.26385,1399.627,703.85767,1399.0813,704.16254L1399.0813,704.16254L1364.2982,723.59784L1364.2675,720.77844L1404.7279,742.2389C1405.2567,742.51935,1405.5856,743.0707,1405.5809,743.6691C1405.5763,744.2676,1405.2391,744.8139,1404.7064,745.08624L1404.7064,745.08624L1359.0172,768.4407L1359.0831,765.6176L1409.7919,794.5894C1410.287,794.87213,1410.5946,795.3962,1410.6007,795.96606C1410.6068,796.536,1410.3102,797.0664,1409.8214,797.3596L1409.8214,797.3596L1352.1068,831.9869L1352.1442,829.2571L1429.3203,878.4813C1429.7756,878.7717,1430.0542,879.27136,1430.0623,879.8113C1430.0701,880.3511,1429.8059,880.85876,1429.3594,881.16223L1429.3594,881.16223L1312.394,960.6545C1311.9023,960.9886,1311.2661,961.0236,1310.7407,960.7454C1310.2151,960.4672,1309.8867,959.9213,1309.8867,959.32684L1309.8867,959.32684L1309.8867,959.3256C1309.8867,958.43915,1310.6052,957.7205,1311.4917,957.7205C1312.3782,957.7205,1313.0969,958.43915,1313.0969,959.3256 Z"/></g><g id="change1_16"><path d="M1451.0674,959.3256L1451.0674,959.3256L1451.0674,959.32684L1453.575,957.9992L1336.6094,878.5071L1336.5703,881.188L1413.7467,831.96375C1414.2155,831.6647,1414.4958,831.1445,1414.4883,830.5885C1414.4807,830.0325,1414.1862,829.52,1413.7094,829.23395L1413.7094,829.23395L1355.9945,794.60675L1355.965,797.37695L1406.674,768.40515C1407.1857,768.11273,1407.496,767.5633,1407.4823,766.974C1407.4684,766.38477,1407.1329,765.8504,1406.608,765.5821L1406.608,765.5821L1360.9191,742.22766L1360.9408,745.075L1401.4011,723.6147C1401.9204,723.33923,1402.2478,722.80194,1402.2542,722.2142C1402.2605,721.6264,1401.9453,721.0821,1401.4321,720.79535L1401.4321,720.79535L1366.6492,701.36005L1366.4299,704.26416L1393.4503,694.1232C1394.025,693.9075,1394.4266,693.3828,1394.4843,692.7715C1394.5421,692.1602,1394.2462,691.5696,1393.722,691.24994L1393.722,691.24994L1377.4592,681.3323C1376.7024,680.87067,1375.7146,681.11005,1375.2529,681.86694C1374.7915,682.6238,1375.0308,683.6115,1375.7876,684.0731L1375.7876,684.0731L1392.0504,693.9908L1392.3224,691.11755L1365.302,701.2584C1364.7168,701.4781,1364.3123,702.01733,1364.2654,702.6406C1364.2183,703.26385,1364.5374,703.85767,1365.083,704.16254L1365.083,704.16254L1399.8661,723.59784L1399.8969,720.77844L1359.4364,742.2389C1358.9076,742.51935,1358.5787,743.0707,1358.5834,743.6691C1358.588,744.2676,1358.9252,744.8139,1359.4579,745.08624L1359.4579,745.08624L1405.1471,768.4407L1405.0812,765.6176L1354.3724,794.5894C1353.8773,794.87213,1353.5697,795.3962,1353.5636,795.96606C1353.5575,796.536,1353.8541,797.0664,1354.3429,797.3596L1354.3429,797.3596L1412.0575,831.9869L1412.0201,829.2571L1334.844,878.4813C1334.3887,878.7717,1334.1101,879.27136,1334.102,879.8113C1334.0942,880.3511,1334.3584,880.85876,1334.8049,881.16223L1334.8049,881.16223L1451.7703,960.6545C1452.262,960.9886,1452.8982,961.0236,1453.4236,960.7454C1453.9492,960.4672,1454.2776,959.9213,1454.2776,959.32684L1454.2776,959.32684L1454.2776,959.3256C1454.2776,958.43915,1453.5591,957.7205,1452.6726,957.7205C1451.7861,957.7205,1451.0674,958.43915,1451.0674,959.3256 Z"/></g><g id="change1_33"><path d="M1366.9181,702.87885L1366.9181,702.87885L1366.9181,702.88L1365.3104,701.27484L1382.4412,701.2487C1383.3276,701.24744,1384.0474,701.96497,1384.0488,702.8515C1384.05,703.73804,1383.3325,704.45776,1382.446,704.4591L1382.446,704.4591L1365.3153,704.48517C1364.8893,704.48584,1364.4801,704.3171,1364.1786,704.0159C1363.8771,703.71484,1363.7076,703.30615,1363.7076,702.88L1363.7076,702.88L1363.7076,702.87885C1363.7076,701.9923,1364.4264,701.2737,1365.3129,701.2737C1366.1993,701.2737,1366.9181,701.9923,1366.9181,702.87885 Z"/></g><g id="change1_39"><path d="M1397.2462,702.87885L1397.2462,702.87885L1397.2462,702.88L1398.8539,701.27484L1381.7231,701.2487C1380.8367,701.24744,1380.117,701.96497,1380.1155,702.8515C1380.1143,703.73804,1380.8318,704.45776,1381.7183,704.4591L1381.7183,704.4591L1398.849,704.48517C1399.275,704.48584,1399.6842,704.3171,1399.9857,704.0159C1400.2872,703.71484,1400.4567,703.30615,1400.4567,702.88L1400.4567,702.88L1400.4567,702.87885C1400.4567,701.9923,1399.7379,701.2737,1398.8514,701.2737C1397.965,701.2737,1397.2462,701.9923,1397.2462,702.87885 Z"/></g><g id="change1_22"><path d="M1364.7982,710.3647L1364.7982,710.3647L1364.7982,710.3659C1364.7982,710.9765,1364.452,711.53424,1363.9047,711.8049L1363.9047,711.8049L1294.1707,746.2811L1293.46,743.23694L1358.9867,743.2655C1359.8732,743.26587,1360.5914,743.9848,1360.5912,744.87134C1360.5907,745.7579,1359.8717,746.4762,1358.9852,746.4758L1358.9852,746.4758L1293.4585,746.4473C1292.7129,746.447,1292.0657,745.93317,1291.896,745.20703C1291.7266,744.48096,1292.0793,743.73364,1292.7478,743.40314L1292.7478,743.40314L1362.4819,708.927L1361.5881,710.366L1361.5881,710.3648C1361.5881,709.4783,1362.3069,708.75964,1363.1932,708.7595C1364.0797,708.7595,1364.7982,709.47815,1364.7982,710.3647 Z"/></g><g id="change1_23"><path d="M1399.3661,710.3647L1399.3661,710.3647L1399.3661,710.3659C1399.3661,710.9765,1399.7123,711.53424,1400.2596,711.8049L1400.2596,711.8049L1469.9937,746.2811L1470.7043,743.23694L1405.1776,743.2655C1404.2911,743.26587,1403.5729,743.9848,1403.5731,744.87134C1403.5736,745.7579,1404.2926,746.4762,1405.1791,746.4758L1405.1791,746.4758L1470.7058,746.4473C1471.4514,746.447,1472.0986,745.93317,1472.2683,745.20703C1472.4377,744.48096,1472.085,743.73364,1471.4165,743.40314L1471.4165,743.40314L1401.6824,708.927L1402.5762,710.366L1402.5762,710.3648C1402.5762,709.4783,1401.8574,708.75964,1400.9711,708.7595C1400.0846,708.7595,1399.3661,709.47815,1399.3661,710.3647 Z"/></g><g id="change1_42"><path d="M1363.454,712.83527L1363.454,712.83527L1363.454,712.8365C1363.454,713.1388,1363.3688,713.4349,1363.2079,713.6908L1363.2079,713.6908L1343.4875,745.0601C1343.2239,745.4795,1342.7812,745.7537,1342.2883,745.80304C1341.7954,745.8524,1341.3074,745.6714,1340.9658,745.31256L1340.9658,745.31256L1326.3081,729.9148L1328.7744,729.74475L1317.7617,745.0701C1317.2444,745.79004,1316.2412,745.9543,1315.5212,745.43695C1314.8015,744.9196,1314.6372,743.9166,1315.1545,743.1967L1315.1545,743.1967L1326.1672,727.87134C1326.446,727.4832,1326.8835,727.23956,1327.3604,727.20667C1327.8374,727.17377,1328.304,727.35516,1328.6335,727.7013L1328.6335,727.7013L1343.291,743.09906L1340.7693,743.3515L1360.49,711.98224L1360.2437,712.83655L1360.2437,712.8353C1360.2437,711.9488,1360.9624,711.23016,1361.8489,711.23016C1362.7354,711.23016,1363.454,711.9487,1363.454,712.83527 Z"/></g><g id="change1_14"><path d="M1400.7098,712.83527L1400.7098,712.83527L1400.7098,712.8365C1400.7098,713.1388,1400.795,713.4349,1400.9559,713.6908L1400.9559,713.6908L1420.6763,745.0601C1420.94,745.4795,1421.3826,745.7537,1421.8755,745.80304C1422.3684,745.8524,1422.8564,745.6714,1423.198,745.31256L1423.198,745.31256L1437.8557,729.91473L1435.3894,729.74475L1446.4021,745.07007C1446.9194,745.79,1447.9226,745.9542,1448.6426,745.4369C1449.3623,744.91956,1449.5266,743.91656,1449.0093,743.19666L1449.0093,743.19666L1437.9966,727.8713C1437.7178,727.48315,1437.2803,727.2395,1436.8035,727.2066C1436.3264,727.1737,1435.8599,727.35516,1435.5303,727.7013L1435.5303,727.7013L1420.8728,743.09906L1423.3945,743.3515L1403.6738,711.98224L1403.9202,712.83655L1403.9202,712.8353C1403.9202,711.9488,1403.2014,711.23016,1402.315,711.23016C1401.4285,711.23016,1400.7098,711.9487,1400.7098,712.83527 Z"/></g><g id="change1_40"><path d="M1358.1522,765.591L1358.1522,765.591L1358.1522,765.59216C1358.1522,766.1957,1357.8138,766.74817,1357.276,767.0223L1357.276,767.0223L1288.2083,802.23206L1287.46,799.1969L1353.0492,798.41364C1353.9357,798.403,1354.6627,799.1131,1354.6732,799.9995C1354.684,800.886,1353.974,801.6132,1353.0875,801.62384L1353.0875,801.62384L1287.4983,802.40704C1286.7527,802.41595,1286.0991,801.9102,1285.9207,801.18616C1285.7422,800.4621,1286.0857,799.71063,1286.75,799.37195L1286.75,799.37195L1355.818,764.1621L1354.9418,765.59216L1354.9418,765.591C1354.9418,764.70447,1355.6605,763.98584,1356.547,763.98584C1357.4335,763.98584,1358.1522,764.70447,1358.1522,765.591 Z"/></g><g id="change1_32"><path d="M1406.0121,765.591L1406.0121,765.591L1406.0121,765.59216C1406.0121,766.1957,1406.3505,766.74817,1406.8883,767.0223L1406.8883,767.0223L1475.956,802.23206L1476.7043,799.1969L1411.1151,798.41364C1410.2286,798.403,1409.5016,799.1131,1409.4911,799.9995C1409.4803,800.886,1410.1903,801.6132,1411.0768,801.62384L1411.0768,801.62384L1476.666,802.40704C1477.4116,802.41595,1478.0652,801.9102,1478.2437,801.18616C1478.4221,800.4621,1478.0786,799.71063,1477.4143,799.37195L1477.4143,799.37195L1408.3463,764.1621L1409.2225,765.59216L1409.2225,765.591C1409.2225,764.70447,1408.5038,763.98584,1407.6173,763.98584C1406.7308,763.98584,1406.0121,764.70447,1406.0121,765.591 Z"/></g><g id="change1_41"><path d="M1357.4789,767.5093L1357.4789,767.5093L1357.4789,767.5105C1357.4789,767.7993,1357.401,768.0827,1357.2535,768.33093L1357.2535,768.33093L1338.4198,800.00104C1338.1642,800.4306,1337.7235,800.7167,1337.2269,800.77484C1336.7306,800.833,1336.2352,800.6567,1335.8876,800.29785L1335.8876,800.29785L1320.8875,784.8233L1323.4182,784.52905L1313.6357,800.90955C1313.1812,801.67065,1312.1956,801.91925,1311.4346,801.46466C1310.6733,801.0101,1310.4248,800.0246,1310.8794,799.2635L1310.8794,799.2635L1320.6619,782.883C1320.9177,782.45435,1321.3586,782.16925,1321.8547,782.1116C1322.3506,782.05396,1322.8452,782.2303,1323.1926,782.58875L1323.1926,782.58875L1338.1927,798.0633L1335.6605,798.3601L1354.4943,766.68994L1354.2687,767.51044L1354.2687,767.5092C1354.2687,766.6227,1354.9874,765.9041,1355.8739,765.9041C1356.7604,765.9041,1357.4789,766.62274,1357.4789,767.5093 Z"/></g><g id="change1_13"><path d="M1406.6854,767.5093L1406.6854,767.5093L1406.6854,767.5105C1406.6854,767.7993,1406.7633,768.0827,1406.9108,768.33093L1406.9108,768.33093L1425.7445,800.00104C1426.0001,800.4306,1426.4408,800.7167,1426.9374,800.77484C1427.4337,800.833,1427.9291,800.6567,1428.2767,800.29785L1428.2767,800.29785L1443.2769,784.8233L1440.7461,784.52905L1450.5286,800.90955C1450.9832,801.67065,1451.9688,801.91925,1452.7297,801.46466C1453.491,801.0101,1453.7395,800.0246,1453.2849,799.2635L1453.2849,799.2635L1443.5024,782.883C1443.2466,782.45435,1442.8057,782.16925,1442.3096,782.1116C1441.8137,782.05396,1441.3191,782.2303,1440.9717,782.58875L1440.9717,782.58875L1425.9716,798.0633L1428.5038,798.3601L1409.67,766.68994L1409.8956,767.51044L1409.8956,767.5092C1409.8956,766.6227,1409.1769,765.9041,1408.2904,765.9041C1407.4039,765.9041,1406.6854,766.62274,1406.6854,767.5093 Z"/></g><g fill-opacity="0.996" id="change1_26"><path d="M1314.237,745.8988Q1313.8726,749.65356,1313.9602,750.6273Q1314.0642,752.30365,1314.5486,753.3706Q1315.8318,756.2398,1318.793,756.10394Q1321.4441,755.80237,1322.3535,752.8509Q1323.2769,750.06036,1322.281,745.20856 Z"/></g><g fill-opacity="0.996" id="change1_37"><path d="M1449.9272,745.8988Q1450.2917,749.65356,1450.2041,750.6273Q1450.1001,752.30365,1449.6157,753.3706Q1448.3325,756.2398,1445.3713,756.10394Q1442.7202,755.80237,1441.8108,752.8509Q1440.8875,750.06036,1441.8833,745.20856 Z"/></g><g fill-opacity="0.996" id="change1_25"><path d="M1309.312,801.6877Q1309.4358,806.577,1309.5485,807.6249Q1309.7015,809.21405,1310.0045,809.88354Q1310.8029,811.80096,1313.4989,811.4207Q1314.7299,811.24036,1315.4364,810.78973Q1315.8907,810.4883,1316.0924,809.58154Q1316.7085,807.1305,1316.051,800.75824 Z"/></g><g fill-opacity="0.996" id="change1_7"><path d="M1454.8513,801.6877Q1454.7275,806.577,1454.6149,807.6249Q1454.4618,809.21405,1454.1588,809.88354Q1453.3605,811.80096,1450.6644,811.4207Q1449.4335,811.24036,1448.7269,810.78973Q1448.2726,810.4883,1448.0709,809.58154Q1447.4548,807.1305,1448.1123,800.75824 Z"/></g></g><g id="change1_35"><path d="M1104.4829,782.3617L1104.4829,782.3617Q1141.7119,810.26465,1212.5552,820.13116L1212.5527,820.13086Q1239.5828,823.84534,1274.0194,819.9118L1274.014,819.9124Q1297.079,817.17804,1310.5431,807.5085C1311.1077,807.1033,1311.8937,807.2322,1312.299,807.7966C1312.7042,808.3609,1312.5753,809.147,1312.0109,809.55225L1312.0109,809.55225Q1298.0194,819.60046,1274.3104,822.41113L1274.305,822.41174Q1239.5537,826.3812,1212.2102,822.6237L1212.208,822.6234Q1140.7222,812.6674,1102.9739,784.3751C1102.418,783.95844,1102.3049,783.1698,1102.7217,782.61383C1103.1384,782.0578,1103.927,781.94495,1104.4829,782.3617 Z"/></g><g id="change1_24"><path d="M1112.2816,710.711L1112.2816,710.711Q1145.3628,730.18835,1216.1586,745.51556L1216.1132,745.5066Q1270.031,755.1166,1314.8491,748.0493C1315.5354,747.9411,1316.1797,748.40985,1316.2878,749.0962C1316.396,749.78253,1315.9272,750.4267,1315.2407,750.53485L1315.2407,750.53485Q1270.0051,757.6679,1215.6715,747.9839L1215.6263,747.9749Q1144.4348,732.562,1111.0048,712.8793C1110.4059,712.52673,1110.2064,711.7556,1110.559,711.15686C1110.9115,710.5581,1111.6827,710.35846,1112.2816,710.711 Z"/></g><g id="change1_17"><path d="M1275.2831,709.44696L1275.2831,709.44696Q1298.8308,728.27594,1343.6267,742.843C1344.2876,743.0579,1344.6488,743.7677,1344.4341,744.4286C1344.2192,745.08936,1343.5093,745.45087,1342.8484,745.23596L1342.8484,745.23596Q1297.6172,730.5274,1273.7118,711.41223C1273.1691,710.9783,1273.0809,710.1866,1273.5148,709.6439C1273.9486,709.10126,1274.7404,709.013,1275.2831,709.44696 Z"/></g><g id="change1_8"><path d="M1444.4857,748.7256L1444.4857,748.7256L1444.4979,748.4864C1444.5333,747.7924,1445.1244,747.2585,1445.8182,747.29376C1446.5123,747.32904,1447.0463,747.92017,1447.0109,748.61414L1447.0109,748.61414L1446.9989,748.8533C1446.9635,749.54724,1446.3724,750.0812,1445.6783,750.0459C1444.9845,750.0106,1444.4506,749.4195,1444.4857,748.7256 Z"/></g><g id="change1_18"><path d="M1444.1461,751.3674L1444.1461,751.3674Q1443.892,751.3341,1443.2604,751.3957L1443.2684,751.3949Q1438.5958,751.8811,1431.6732,752.496L1431.6517,752.4977Q1426.245,752.8852,1423.2521,753.03735L1423.2596,753.0369Q1411.8256,753.687,1403.6066,753.5598L1403.6112,753.5599Q1393.8624,753.4451,1383.7477,752.48804L1383.7421,752.4875Q1376.3407,751.75323,1371.341,750.4868C1370.6674,750.3162,1370.2596,749.6319,1370.4303,748.9583C1370.601,748.28467,1371.2853,747.877,1371.9589,748.04767L1371.9589,748.04767Q1376.7765,749.2678,1383.9904,749.9835L1383.9847,749.9829Q1393.9967,750.93024,1403.641,751.0438L1403.6454,751.0439Q1411.7728,751.1696,1423.1168,750.5247L1423.1244,750.52435Q1426.0873,750.3737,1431.4718,749.9878L1431.4506,749.9895Q1438.3573,749.3761,1443.0079,748.89215L1443.016,748.8913Q1443.9335,748.8019,1444.4728,748.8725C1445.1617,748.96265,1445.6471,749.59424,1445.557,750.28326C1445.4667,750.9722,1444.8351,751.4576,1444.1461,751.3674 Z"/></g><g id="change1_38"><path d="M1282.73,781.847L1282.73,781.847Q1287.1836,786.86163,1327.8727,800.75903L1327.8351,800.7469Q1358.0702,810.0281,1382.7292,813.61285L1382.7366,813.61395Q1423.1292,819.7272,1448.8691,806.6542C1449.4888,806.3395,1450.2461,806.58655,1450.5608,807.20605C1450.8755,807.8255,1450.6284,808.5828,1450.0088,808.8975L1450.0088,808.8975Q1423.5496,822.33575,1382.3601,816.10187L1382.3674,816.103Q1357.517,812.4904,1327.0968,803.1524L1327.0592,803.14026Q1285.7427,789.02844,1280.8486,783.51776C1280.3872,782.9982,1280.4343,782.203,1280.9539,781.74164C1281.4734,781.28033,1282.2686,781.32745,1282.73,781.847 Z"/></g></g></svg>