<?xml version="1.0" encoding="UTF-8"?><svg xmlns="http://www.w3.org/2000/svg" xmlns:xlink="http://www.w3.org/1999/xlink" height="28.0" preserveAspectRatio="xMidYMid meet" version="1.0" viewBox="0.0 0.0 28.0 28.0" width="28.0" zoomAndPan="magnify"><g id="change1_1"><path d="M 25 23 L 26.269531 23 C 25.910156 23.617188 25.910156 24.382812 26.269531 25 L 25 25 Z M 1.730469 23 L 3 23 L 3 25 L 1.730469 25 C 2.089844 24.382812 2.089844 23.617188 1.730469 23 Z M 17.511719 15.082031 C 18.570312 17.023438 17.855469 19.449219 15.917969 20.511719 C 15.628906 20.667969 15.324219 20.789062 15.007812 20.871094 L 15.589844 22.863281 L 12.5625 20.410156 C 12.410156 20.285156 12.386719 20.058594 12.511719 19.90625 C 12.609375 19.789062 12.773438 19.742188 12.917969 19.800781 C 14.464844 20.394531 16.203125 19.628906 16.796875 18.082031 C 17.117188 17.261719 17.054688 16.339844 16.632812 15.5625 Z M 12.410156 11.136719 L 15.4375 13.589844 C 15.589844 13.714844 15.613281 13.941406 15.488281 14.09375 C 15.390625 14.214844 15.226562 14.257812 15.082031 14.203125 C 13.535156 13.601562 11.800781 14.371094 11.203125 15.917969 C 10.882812 16.738281 10.945312 17.660156 11.367188 18.4375 L 10.488281 18.917969 C 9.429688 16.980469 10.144531 14.546875 12.082031 13.488281 C 12.371094 13.332031 12.675781 13.210938 12.992188 13.128906 Z M 25 3 L 26.269531 3 C 25.910156 3.617188 25.910156 4.382812 26.269531 5 L 25 5 Z M 6 3 L 22 3 L 22 8 L 6 8 Z M 1.730469 3 L 3 3 L 3 5 L 1.730469 5 C 2.089844 4.382812 2.089844 3.617188 1.730469 3 Z M 5 0 C 3.894531 0 3 0.894531 3 2 L 0 2 L 0 3 C 0.550781 3 1 3.449219 1 4 C 1 4.550781 0.550781 5 0 5 L 0 6 L 3 6 L 3 22 L 0 22 L 0 23 C 0.550781 23 1 23.449219 1 24 C 1 24.550781 0.550781 25 0 25 L 0 26 L 3 26 C 3 27.105469 3.894531 28 5 28 L 23 28 C 24.105469 28 25 27.105469 25 26 L 28 26 L 28 25 C 27.449219 25 27 24.550781 27 24 C 27 23.449219 27.449219 23 28 23 L 28 22 L 25 22 L 25 6 L 28 6 L 28 5 C 27.449219 5 27 4.550781 27 4 C 27 3.449219 27.449219 3 28 3 L 28 2 L 25 2 C 25 0.894531 24.105469 0 23 0 L 5 0" fill="#040606"/></g></svg>