<?xml version="1.0" encoding="UTF-8"?><svg xmlns="http://www.w3.org/2000/svg" xmlns:xlink="http://www.w3.org/1999/xlink" height="28.0" preserveAspectRatio="xMidYMid meet" version="1.0" viewBox="0.0 0.0 28.0 28.0" width="28.0" zoomAndPan="magnify"><g fill="#040606" id="change1_1"><path d="M 17.511719 15.082031 L 16.632812 15.5625 C 17.425781 17.015625 16.894531 18.835938 15.4375 19.632812 C 14.664062 20.054688 13.742188 20.117188 12.917969 19.796875 C 12.734375 19.726562 12.527344 19.820312 12.457031 20.003906 C 12.398438 20.148438 12.441406 20.3125 12.5625 20.410156 L 15.589844 22.863281 L 15.007812 20.871094 C 17.144531 20.316406 18.425781 18.132812 17.871094 15.992188 C 17.789062 15.675781 17.667969 15.371094 17.511719 15.082031" fill="inherit"/><path d="M 15.4375 13.589844 L 12.410156 11.132812 L 12.992188 13.128906 C 10.855469 13.683594 9.574219 15.867188 10.128906 18.007812 C 10.210938 18.324219 10.332031 18.628906 10.488281 18.917969 L 11.367188 18.4375 C 10.574219 16.984375 11.105469 15.160156 12.5625 14.367188 C 13.335938 13.945312 14.257812 13.882812 15.082031 14.203125 C 15.265625 14.273438 15.472656 14.179688 15.542969 13.996094 C 15.601562 13.851562 15.554688 13.6875 15.4375 13.589844" fill="inherit"/><path d="M 25 23 L 26.269531 23 C 25.910156 23.617188 25.910156 24.382812 26.269531 25 L 25 25 Z M 1.730469 23 L 3 23 L 3 25 L 1.730469 25 C 2.089844 24.382812 2.089844 23.617188 1.730469 23 Z M 25 3 L 26.269531 3 C 25.910156 3.617188 25.910156 4.382812 26.269531 5 L 25 5 Z M 1.730469 3 L 3 3 L 3 5 L 1.730469 5 C 2.089844 4.382812 2.089844 3.617188 1.730469 3 Z M 5 1 L 23 1 C 23.550781 1 24 1.449219 24 2 L 24 26 C 24 26.550781 23.550781 27 23 27 L 5 27 C 4.449219 27 4 26.550781 4 26 L 4 2 C 4 1.449219 4.449219 1 5 1 Z M 5 0 C 3.894531 0 3 0.894531 3 2 L 0 2 L 0 3 C 0.550781 3 1 3.449219 1 4 C 1 4.550781 0.550781 5 0 5 L 0 6 L 3 6 L 3 22 L 0 22 L 0 23 C 0.550781 23 1 23.449219 1 24 C 1 24.550781 0.550781 25 0 25 L 0 26 L 3 26 C 3 27.105469 3.894531 28 5 28 L 23 28 C 24.105469 28 25 27.105469 25 26 L 28 26 L 28 25 C 27.449219 25 27 24.550781 27 24 C 27 23.449219 27.449219 23 28 23 L 28 22 L 25 22 L 25 6 L 28 6 L 28 5 C 27.449219 5 27 4.550781 27 4 C 27 3.449219 27.449219 3 28 3 L 28 2 L 25 2 C 25 0.894531 24.105469 0 23 0 L 5 0" fill="inherit"/><path d="M 7 4 L 21 4 L 21 7 L 7 7 Z M 6 3 L 6 8 L 22 8 L 22 3 L 6 3" fill="inherit"/></g></svg>