<?xml version="1.0" encoding="UTF-8"?><svg xmlns="http://www.w3.org/2000/svg" xmlns:xlink="http://www.w3.org/1999/xlink" fill="none" height="464.0" preserveAspectRatio="xMidYMid meet" style="fill: none;" version="1.0" viewBox="24.0 24.0 469.6 464.0" width="469.6" zoomAndPan="magnify"><g id="change1_1"><path clip-rule="evenodd" d="M176.013 24C180.431 24 184.013 27.5817 184.013 32V56C184.013 60.4183 180.431 64 176.013 64C171.595 64 168.013 60.4183 168.013 56V32C168.013 27.5817 171.595 24 176.013 24ZM176.007 104C136.238 104 104 136.236 104 176C104 215.764 136.238 248 176.007 248C215.776 248 248.014 215.764 248.014 176C248.014 136.236 215.776 104 176.007 104ZM88 176C88 127.398 127.403 88 176.007 88C224.611 88 264.014 127.398 264.014 176C264.014 224.602 224.611 264 176.007 264C127.403 264 88 224.602 88 176ZM320.026 184C324.444 184 328.026 180.418 328.026 176C328.026 171.582 324.444 168 320.026 168H296.026C291.607 168 288.026 171.582 288.026 176C288.026 180.418 291.607 184 296.026 184H320.026ZM283.502 283.48C280.378 286.604 275.313 286.604 272.188 283.48L255.217 266.51C252.093 263.386 252.093 258.321 255.217 255.197C258.341 252.073 263.407 252.073 266.531 255.197L283.502 272.167C286.627 275.291 286.627 280.356 283.502 283.48ZM79.8335 283.48C76.7093 286.604 71.644 286.604 68.5198 283.48C65.3956 280.356 65.3956 275.291 68.5198 272.167L85.4903 255.196C88.6145 252.072 93.6799 252.072 96.804 255.196C99.9282 258.32 99.9282 263.385 96.8041 266.51L79.8335 283.48ZM176.013 288C180.431 288 184.013 291.582 184.013 296V320C184.013 324.418 180.431 328 176.013 328C171.595 328 168.013 324.418 168.013 320V296C168.013 291.582 171.595 288 176.013 288ZM56 184C60.4183 184 64 180.418 64 176C64 171.582 60.4183 168 56 168H32C27.5817 168 24 171.582 24 176C24 180.418 27.5817 184 32 184H56ZM96.8041 96.8041C93.6799 99.9283 88.6146 99.9283 85.4904 96.8041L68.5198 79.8335C65.3956 76.7093 65.3956 71.644 68.5198 68.5198C71.644 65.3956 76.7093 65.3956 79.8335 68.5198L96.8041 85.4904C99.9283 88.6146 99.9283 93.6799 96.8041 96.8041ZM266.53 96.8038C263.406 99.9279 258.341 99.9279 255.216 96.8038C252.092 93.6798 252.092 88.6147 255.216 85.4906L272.187 68.5208C275.312 65.3967 280.377 65.3967 283.502 68.5208C286.626 71.6448 286.626 76.7099 283.502 79.834L266.53 96.8038ZM232.961 352C229.986 352 227.256 353.651 225.875 356.287L202.967 400H276.825L299.413 352H232.961ZM269.296 416H194.582L171.374 460.287C168.582 465.613 172.446 472 178.46 472H242.943L269.296 416ZM286.979 416H357.303L330.95 472H260.626L286.979 416ZM364.833 400H294.508L317.096 352H387.421L364.833 400ZM374.986 416L348.633 472H409.465C412.44 472 415.17 470.349 416.551 467.713L443.652 416H374.986ZM452.036 400H382.516L405.104 352H463.967C469.98 352 473.844 358.387 471.053 363.713L452.036 400ZM211.704 348.86C215.847 340.954 224.035 336 232.961 336H463.967C482.008 336 493.599 355.16 485.224 371.14L430.723 475.14C426.58 483.046 418.391 488 409.465 488H178.46C160.418 488 148.828 468.84 157.202 452.86L211.704 348.86Z" fill="#000" fill-rule="evenodd"/></g></svg>