<?xml version="1.0" encoding="UTF-8"?><svg xmlns="http://www.w3.org/2000/svg" xmlns:xlink="http://www.w3.org/1999/xlink" height="58.0" preserveAspectRatio="xMidYMid meet" version="1.0" viewBox="0.0 1.0 60.0 58.0" width="60.0" zoomAndPan="magnify"><g id="change1_1"><path d="M59,9h-4V2c0-0.6-0.4-1-1-1h-8c-0.6,0-1,0.4-1,1v7H15V2c0-0.6-0.4-1-1-1H6C5.4,1,5,1.4,5,2v7H1c-0.6,0-1,0.4-1,1v10 c0,0.6,0.4,1,1,1h2v37c0,0.6,0.4,1,1,1h52c0.6,0,1-0.4,1-1V21h2c0.6,0,1-0.4,1-1V10C60,9.4,59.6,9,59,9z M6,11c0.6,0,1-0.4,1-1V3h6 v6H9v2h5h32h5V9h-4V3h6v7c0,0.6,0.4,1,1,1h4v3H2v-3H6z M5,57v-4h50v4H5z M55,27H45v2h10v22H5V29h36v-2H5v-6h50V27z M56,19H4H2v-3 h56v3H56z"/><path d="M14 36L12 36 12 39 9 39 9 41 12 41 12 44 14 44 14 41 17 41 17 39 14 39z"/><path d="M43 39H51V41H43z"/><path d="M33,39h-5.6l5.3-5.3l-1.4-1.4l-7,7c-0.3,0.3-0.4,0.7-0.2,1.1S24.6,41,25,41h5.6l-5.3,5.3l1.4,1.4l7-7 c0.3-0.3,0.4-0.7,0.2-1.1C33.8,39.2,33.4,39,33,39z"/></g></svg>