<?xml version="1.0" encoding="UTF-8"?><svg xmlns="http://www.w3.org/2000/svg" xmlns:xlink="http://www.w3.org/1999/xlink" clip-rule="evenodd" fill-rule="evenodd" height="78.2" image-rendering="optimizeQuality" preserveAspectRatio="xMidYMid meet" shape-rendering="geometricPrecision" text-rendering="geometricPrecision" version="1.0" viewBox="10.2 47.6 153.1 78.2" width="153.1" zoomAndPan="magnify"><g><g id="change1_1"><path d="M13.5197 122.461l146.358 0c-0.8949,-39.5903 -33.3764,-71.5251 -73.1793,-71.5251 -39.8026,-0.0002 -72.2843,31.9349 -73.1789,71.5251zm148.047 3.3424l-149.735 0c-0.9228,0 -1.6713,-0.7451 -1.6713,-1.671 0.0001,-20.4432 7.9619,-39.6637 22.4168,-54.1186 14.4583,-14.4582 33.6755,-22.4201 54.1218,-22.4201 20.443,-0.0001 39.6636,7.9619 54.1219,22.4201 14.455,14.4548 22.4167,33.6758 22.4167,54.1186 0.0003,0.9256 -0.7485,1.671 -1.6709,1.671z" fill="inherit"/><path d="M24.1344 122.461l125.129 0c-0.8879,-33.7382 -28.614,-60.9139 -62.5646,-60.9139 -33.9504,-0.0003 -61.6765,27.1758 -62.5642,60.9139zm126.821 3.3424l-128.513 0c-0.9223,0 -1.6712,-0.7451 -1.6712,-1.671 0.0003,-36.3531 29.5746,-65.9274 65.9273,-65.9274 36.3528,-0.0001 65.9274,29.5745 65.9274,65.9274 0,0.9256 -0.7486,1.671 -1.6709,1.671z" fill="inherit"/><path d="M76.5993 122.461l20.199 0c-0.8006,-4.8495 -5.0238,-8.564 -10.0997,-8.564 -5.0759,0 -9.2988,3.7147 -10.0993,8.564zm22.0057 3.3424l-23.8128 0c-0.9223,0 -1.671,-0.7451 -1.671,-1.671 0.0002,-7.4851 6.089,-13.5775 13.5774,-13.5775 7.4885,-0.0003 13.5774,6.0925 13.5774,13.5775 0.0002,0.9256 -0.7484,1.671 -1.671,1.671z" fill="inherit"/><path d="M95.1169 117.385c-0.425,0 -0.8532,-0.1633 -1.1804,-0.4906 -0.6545,-0.6511 -0.6546,-1.7094 0,-2.3639l26.9707 -26.9707c0.6544,-0.6509 1.7125,-0.6507 2.3635,0.0002 0.6546,0.6508 0.6545,1.7095 0,2.3639l-26.9702 26.9704c-0.3274,0.3274 -0.7556,0.491 -1.1836,0.4907z" fill="inherit"/></g></g><path d="M0 0H173.397V173.397H0z" fill="none"/></svg>