<?xml version="1.0" encoding="UTF-8" standalone="no"?><svg xmlns="http://www.w3.org/2000/svg" xmlns:xlink="http://www.w3.org/1999/xlink" fill="#cb6ce6" height="306.3" preserveAspectRatio="xMidYMid meet" version="1" viewBox="1049.1 642.5 451.0 306.3" width="451" zoomAndPan="magnify"><g><g><g id="change1_11"><path d="M1077.9191,946.43384L1077.9191,946.43384L1077.9191,946.4348L1074.6068,945.9448L1115.876,809.4776L1115.8137,809.78265L1130.587,675.267C1130.6133,675.02704,1130.6908,674.7955,1130.8141,674.5878L1130.8141,674.5878L1149.2317,643.56384C1149.7087,642.76013,1150.7471,642.4955,1151.5508,642.97253C1152.3544,643.4497,1152.6191,644.48804,1152.1421,645.29175L1152.1421,645.29175L1133.7244,676.3156L1133.9515,675.63654L1119.1781,810.15216C1119.1669,810.2557,1119.1459,810.3577,1119.1158,810.45734L1119.1158,810.45734L1077.8467,946.9247C1077.6038,947.7278,1076.8092,948.2317,1075.9791,948.1089C1075.1492,947.9861,1074.5343,947.2737,1074.5343,946.4347L1074.5343,946.4347L1074.5343,946.4337C1074.5343,945.49915,1075.292,944.74133,1076.2268,944.74146C1077.1614,944.74146,1077.9191,945.49927,1077.9191,946.43384 Z"/></g><g id="change1_31"><path d="M1223.4749,946.43384L1223.4749,946.43384L1223.4749,946.4348L1226.7871,945.9448L1185.5178,809.4776L1185.5801,809.78265L1170.8066,675.2671C1170.7803,675.0271,1170.7028,674.79553,1170.5795,674.5879L1170.5795,674.5879L1152.1619,643.5639C1151.6848,642.7602,1150.6465,642.49554,1149.8428,642.9726C1149.0392,643.44977,1148.7744,644.4881,1149.2515,645.2918L1149.2515,645.2918L1167.6693,676.3157L1167.4421,675.6366L1182.2157,810.15216C1182.2269,810.2557,1182.2479,810.3577,1182.278,810.45734L1182.278,810.45734L1223.5472,946.9247C1223.7902,947.7278,1224.5847,948.2317,1225.4148,948.1089C1226.2448,947.9861,1226.8596,947.2737,1226.8596,946.4347L1226.8596,946.4347L1226.8596,946.4337C1226.8596,945.49915,1226.1019,944.74133,1225.1671,944.74146C1224.2325,944.74146,1223.4749,945.49927,1223.4749,946.43384 Z"/></g><g id="change1_16"><path d="M1077.9672,946.95703L1077.9672,946.95703L1077.9672,946.958L1075.3235,945.5582L1198.6382,861.7513L1198.6793,864.5777L1117.3137,812.68146C1116.8195,812.3663,1116.5236,811.8177,1116.5316,811.2315C1116.5396,810.6453,1116.8503,810.10504,1117.353,809.8035L1117.353,809.8035L1178.2009,773.2969L1178.232,776.2174L1124.7703,745.6726C1124.2307,745.3644,1123.9034,744.78516,1123.918,744.1638C1123.9324,743.5426,1124.2861,742.97925,1124.8395,742.6963L1124.8395,742.6963L1173.0089,718.0742L1172.9863,721.0762L1130.3291,698.45087C1129.7816,698.16046,1129.4366,697.59406,1129.4298,696.9743C1129.423,696.35455,1129.7555,695.7807,1130.2965,695.47845L1130.2965,695.47845L1166.9677,674.9882L1167.1985,678.05L1138.7118,667.3586C1138.1057,667.13116,1137.6825,666.57794,1137.6216,665.93353C1137.5607,665.2891,1137.8727,664.66644,1138.4253,664.3294L1138.4253,664.3294L1155.5708,653.87317C1156.3687,653.3866,1157.41,653.6389,1157.8967,654.4369C1158.3834,655.23474,1158.131,656.27625,1157.333,656.7628L1157.333,656.7628L1140.1876,667.21893L1139.901,664.18964L1168.3877,674.88116C1169.0046,675.1126,1169.431,675.6812,1169.4806,676.3383C1169.5302,676.9954,1169.1938,677.6215,1168.6185,677.94293L1168.6185,677.94293L1131.9475,698.43317L1131.9149,695.46075L1174.5721,718.08594C1175.1296,718.3817,1175.4762,718.9629,1175.4714,719.5939C1175.4667,720.22485,1175.1113,720.8008,1174.5496,721.088L1174.5496,721.088L1126.3801,745.7101L1126.4492,742.73376L1179.911,773.27856C1180.4329,773.57666,1180.7573,774.129,1180.7638,774.73C1180.7703,775.3308,1180.4575,775.89,1179.9423,776.1991L1179.9423,776.1991L1119.0944,812.70575L1119.1337,809.8278L1200.4994,861.72406C1200.9794,862.0302,1201.2732,862.55707,1201.2815,863.1263C1201.2897,863.6954,1201.0114,864.23065,1200.5405,864.5506L1200.5405,864.5506L1077.226,948.3578C1076.7075,948.7101,1076.0367,948.7468,1075.4828,948.4536C1074.9288,948.1603,1074.5823,947.58484,1074.5823,946.9579L1074.5823,946.9579L1074.5823,946.9569C1074.5823,946.02234,1075.34,945.26465,1076.2748,945.2648C1077.2094,945.2648,1077.9672,946.02246,1077.9672,946.95703 Z"/></g><g id="change1_50"><path d="M1223.4263,946.95703L1223.4263,946.95703L1223.4263,946.958L1226.07,945.55817L1102.7551,861.7514L1102.714,864.5778L1184.0796,812.68146C1184.5739,812.3663,1184.8698,811.8177,1184.8617,811.2315C1184.8538,810.6453,1184.543,810.10504,1184.0403,809.8035L1184.0403,809.8035L1123.1923,773.29694L1123.1611,776.21747L1176.6229,745.6726C1177.1625,745.3644,1177.4897,744.78516,1177.4752,744.1638C1177.4608,743.5426,1177.107,742.97925,1176.5537,742.6963L1176.5537,742.6963L1128.3843,718.0743L1128.4069,721.07623L1171.0641,698.45087C1171.6116,698.16046,1171.9565,697.59406,1171.9634,696.9743C1171.9702,696.35455,1171.6377,695.7807,1171.0967,695.47845L1171.0967,695.47845L1134.4255,674.9883L1134.1947,678.05005L1162.6814,667.35864C1163.2875,667.1312,1163.7107,666.578,1163.7716,665.9336C1163.8325,665.2892,1163.5205,664.6665,1162.9679,664.32947L1162.9679,664.32947L1145.8223,653.8732C1145.0244,653.38666,1143.983,653.639,1143.4963,654.43695C1143.0096,655.2348,1143.2621,656.2763,1144.06,656.7629L1144.06,656.7629L1161.2056,667.219L1161.4922,664.1897L1133.0055,674.8812C1132.3885,675.1127,1131.9622,675.6813,1131.9126,676.3384C1131.863,676.9955,1132.1993,677.6216,1132.7747,677.943L1132.7747,677.943L1169.4457,698.43317L1169.4783,695.46075L1126.821,718.086C1126.2635,718.3818,1125.917,718.96295,1125.9218,719.59393C1125.9265,720.2249,1126.2819,720.80084,1126.8436,721.0881L1126.8436,721.0881L1175.0131,745.7101L1174.944,742.73376L1121.4822,773.2786C1120.9603,773.5767,1120.6359,774.1291,1120.6294,774.73004C1120.6229,775.3309,1120.9357,775.8901,1121.4509,776.19916L1121.4509,776.19916L1182.299,812.70575L1182.2596,809.8278L1100.8939,861.7242C1100.414,862.03033,1100.1201,862.5572,1100.1118,863.1264C1100.1036,863.6955,1100.382,864.2308,1100.8528,864.5507L1100.8528,864.5507L1224.1675,948.3577C1224.6859,948.71,1225.3567,948.74677,1225.9106,948.45355C1226.4646,948.1602,1226.8112,947.5848,1226.8112,946.9578L1226.8112,946.9578L1226.8112,946.95685C1226.8112,946.0223,1226.0535,945.2646,1225.1187,945.2647C1224.1841,945.2647,1223.4263,946.02246,1223.4263,946.95703 Z"/></g><g id="change1_36"><path d="M1134.7096,676.5894L1134.7096,676.5894L1134.7096,676.5904L1133.0146,674.89813L1151.0753,674.8708C1152.01,674.86945,1152.7688,675.6259,1152.7703,676.5606C1152.7717,677.4952,1152.0151,678.2541,1151.0804,678.25543L1151.0804,678.25543L1133.0198,678.2828C1132.5706,678.2834,1132.1394,678.1055,1131.8214,677.788C1131.5034,677.4705,1131.3248,677.03973,1131.3248,676.5904L1131.3248,676.5904L1131.3248,676.5894C1131.3248,675.65485,1132.0826,674.89716,1133.0172,674.89716C1133.9519,674.89716,1134.7096,675.65485,1134.7096,676.5894 Z"/></g><g id="change1_26"><path d="M1166.6841,676.58936L1166.6841,676.58936L1166.6841,676.59033L1168.379,674.8981L1150.3184,674.8707C1149.3837,674.8694,1148.6249,675.62585,1148.6234,676.56055C1148.622,677.4951,1149.3785,678.254,1150.3132,678.2554L1150.3132,678.2554L1168.3739,678.2827C1168.8231,678.2833,1169.2543,678.10547,1169.5723,677.78796C1169.8903,677.47046,1170.0688,677.0397,1170.0688,676.59033L1170.0688,676.59033L1170.0688,676.58936C1170.0688,675.6548,1169.311,674.8971,1168.3765,674.8971C1167.4418,674.8971,1166.6841,675.6548,1166.6841,676.58936 Z"/></g><g id="change1_9"><path d="M1132.4749,684.4816L1132.4749,684.4816L1132.4749,684.4826C1132.4749,685.1264,1132.1096,685.7144,1131.5326,685.9997L1131.5326,685.9997L1058.0133,722.3477L1057.2639,719.13837L1126.3474,719.1682C1127.2821,719.1687,1128.0394,719.92664,1128.0391,720.8613C1128.0387,721.7959,1127.2806,722.55334,1126.346,722.55286L1126.346,722.55286L1057.2625,722.523C1056.4763,722.52264,1055.794,721.981,1055.6152,721.2154C1055.4365,720.4499,1055.8085,719.66205,1056.5132,719.31366L1056.5132,719.31366L1130.0325,682.9655L1129.0901,684.4826L1129.0901,684.4816C1129.0901,683.54706,1129.8479,682.78937,1130.7825,682.78937C1131.7172,682.78937,1132.4749,683.54706,1132.4749,684.4816 Z"/></g><g id="change1_13"><path d="M1168.9185,684.4817L1168.9185,684.4817L1168.9185,684.48267C1168.9185,685.12646,1169.2837,685.7145,1169.8607,685.99976L1169.8607,685.99976L1243.38,722.34766L1244.1294,719.1383L1175.0459,719.1682C1174.1112,719.16876,1173.3539,719.9267,1173.3542,720.8614C1173.3546,721.79596,1174.1127,722.5534,1175.0474,722.55286L1175.0474,722.55286L1244.1309,722.52295C1244.917,722.5226,1245.5994,721.98096,1245.7781,721.21533C1245.9568,720.4498,1245.5848,719.662,1244.8801,719.3136L1244.8801,719.3136L1171.3608,682.9656L1172.3032,684.48267L1172.3032,684.4817C1172.3032,683.5471,1171.5454,682.7894,1170.6108,682.7894C1169.6761,682.7894,1168.9185,683.5471,1168.9185,684.4817 Z"/></g><g id="change1_54"><path d="M1131.0575,687.08624L1131.0575,687.08624L1131.0575,687.0872C1131.0575,687.40594,1130.9674,687.7182,1130.7979,687.988L1130.7979,687.988L1110.0072,721.0604C1109.7292,721.5027,1109.2628,721.7916,1108.743,721.8436C1108.2234,721.89575,1107.7087,721.70483,1107.3486,721.32666L1107.3486,721.32666L1091.8955,705.0929L1094.4955,704.9137L1082.885,721.07104C1082.3396,721.8301,1081.282,722.0032,1080.5231,721.45776C1079.7642,720.91235,1079.5911,719.855,1080.1364,719.09595L1080.1364,719.09595L1091.7471,702.93866C1092.0411,702.5295,1092.5023,702.2725,1093.005,702.23785C1093.5078,702.2032,1093.9998,702.39435,1094.3472,702.75934L1094.3472,702.75934L1109.8003,718.9929L1107.1417,719.25903L1127.9324,686.1866L1127.6727,687.0872L1127.6727,687.08624C1127.6727,686.1517,1128.4304,685.39386,1129.3651,685.39386C1130.2997,685.39386,1131.0575,686.1517,1131.0575,687.08624 Z"/></g><g id="change1_51"><path d="M1170.3358,687.08624L1170.3358,687.08624L1170.3358,687.0872C1170.3358,687.40594,1170.4259,687.7182,1170.5955,687.988L1170.5955,687.988L1191.3861,721.0604C1191.6641,721.5027,1192.1305,721.7916,1192.6503,721.8436C1193.1699,721.89575,1193.6846,721.70483,1194.0447,721.32666L1194.0447,721.32666L1209.4978,705.0929L1206.8978,704.9137L1218.5083,721.07104C1219.0537,721.8301,1220.1113,722.0032,1220.8702,721.45776C1221.6292,720.91235,1221.8022,719.855,1221.257,719.09595L1221.257,719.09595L1209.6462,702.93866C1209.3522,702.5295,1208.891,702.2725,1208.3883,702.23785C1207.8855,702.2032,1207.3936,702.39435,1207.0461,702.75934L1207.0461,702.75934L1191.593,718.9929L1194.2516,719.25903L1173.4609,686.1866L1173.7206,687.0872L1173.7206,687.08624C1173.7206,686.1517,1172.9629,685.39386,1172.0282,685.39386C1171.0936,685.39386,1170.3358,686.1517,1170.3358,687.08624 Z"/></g><g id="change1_33"><path d="M1125.468,742.7057L1125.468,742.7057L1125.468,742.70667C1125.468,743.3429,1125.1111,743.9254,1124.5442,744.21436L1124.5442,744.21436L1051.7274,781.33575L1050.9387,778.1358L1120.0878,777.3101C1121.0225,777.299,1121.7891,778.04767,1121.8003,778.98224C1121.8115,779.9168,1121.0629,780.68353,1120.1283,780.69464L1120.1283,780.69464L1050.9791,781.5202C1050.193,781.5296,1049.5039,780.9964,1049.3158,780.2331C1049.1276,779.46967,1049.49,778.6773,1050.1903,778.32025L1050.1903,778.32025L1123.0071,741.19885L1122.0833,742.70667L1122.0833,742.7057C1122.0833,741.771,1122.8411,741.0133,1123.7756,741.0133C1124.7102,741.0133,1125.468,741.771,1125.468,742.7057 Z"/></g><g id="change1_58"><path d="M1175.9258,742.7057L1175.9258,742.7057L1175.9258,742.70667C1175.9258,743.3429,1176.2827,743.9254,1176.8496,744.21436L1176.8496,744.21436L1249.6665,781.3357L1250.4551,778.13574L1181.306,777.3101C1180.3713,777.299,1179.6047,778.04767,1179.5936,778.98224C1179.5824,779.9168,1180.331,780.68353,1181.2656,780.69464L1181.2656,780.69464L1250.4148,781.52014C1251.2009,781.52954,1251.89,780.99634,1252.0781,780.23303C1252.2664,779.4696,1251.9038,778.67725,1251.2035,778.3202L1251.2035,778.3202L1178.3867,741.19885L1179.3105,742.70667L1179.3105,742.7057C1179.3105,741.771,1178.5527,741.0133,1177.6182,741.0133C1176.6836,741.0133,1175.9258,741.771,1175.9258,742.7057 Z"/></g><g id="change1_15"><path d="M1124.7583,744.72815L1124.7583,744.72815L1124.7583,744.7291C1124.7583,745.03357,1124.676,745.3324,1124.5205,745.5941L1124.5205,745.5941L1104.6646,778.9838C1104.3953,779.4367,1103.9303,779.73834,1103.407,779.7996C1102.8837,779.861,1102.3615,779.6751,1101.9949,779.2967L1101.9949,779.2967L1086.1803,762.98206L1088.8484,762.6719L1078.535,779.94147C1078.0558,780.74396,1077.0167,781.0059,1076.2144,780.5267C1075.4117,780.0473,1075.1498,779.00836,1075.629,778.2059L1075.629,778.2059L1085.9425,760.9364C1086.2123,760.4845,1086.6772,760.18384,1087.2001,760.12305C1087.7229,760.06226,1088.2444,760.24817,1088.6106,760.6262L1088.6106,760.6262L1104.4252,776.94086L1101.7555,777.25385L1121.6113,743.86414L1121.3735,744.7291L1121.3735,744.72815C1121.3735,743.7936,1122.1312,743.03577,1123.0659,743.03577C1124.0005,743.03577,1124.7583,743.7936,1124.7583,744.72815 Z"/></g><g id="change1_1"><path d="M1176.6355,744.72815L1176.6355,744.72815L1176.6355,744.7291C1176.6355,745.03357,1176.7178,745.3324,1176.8733,745.5941L1176.8733,745.5941L1196.7294,778.9838C1196.9987,779.4367,1197.4636,779.73834,1197.9869,779.7996C1198.5103,779.861,1199.0325,779.6751,1199.399,779.2967L1199.399,779.2967L1215.2135,762.98206L1212.5454,762.6719L1222.8589,779.94147C1223.3381,780.74396,1224.3772,781.00586,1225.1796,780.5266C1225.9822,780.04724,1226.2441,779.0083,1225.7648,778.2058L1225.7648,778.2058L1215.4513,760.9364C1215.1815,760.4845,1214.7166,760.18384,1214.1937,760.12305C1213.6709,760.06226,1213.1494,760.24817,1212.7832,760.6262L1212.7832,760.6262L1196.9686,776.94086L1199.6383,777.25385L1179.7825,743.86414L1180.0203,744.7291L1180.0203,744.72815C1180.0203,743.7936,1179.2626,743.03577,1178.3279,743.03577C1177.3933,743.03577,1176.6355,743.7936,1176.6355,744.72815 Z"/></g><g fill-opacity="0.996" id="change1_46"><path d="M1079.1692,721.9446Q1078.7847,725.9032,1078.8772,726.9298Q1078.9868,728.697,1079.4974,729.8219Q1080.8505,732.8469,1083.9722,732.70374Q1086.7672,732.38574,1087.7262,729.2742Q1088.6995,726.33215,1087.6498,721.21704 Z"/></g><g fill-opacity="0.996" id="change1_39"><path d="M1222.2245,721.9446Q1222.609,725.9032,1222.5165,726.9298Q1222.4069,728.697,1221.8962,729.8219Q1220.5432,732.8469,1217.4215,732.70374Q1214.6265,732.38574,1213.6675,729.2742Q1212.6942,726.33215,1213.7439,721.21704 Z"/></g><g fill-opacity="0.996" id="change1_17"><path d="M1073.9769,780.7618Q1074.1074,785.91656,1074.2264,787.0214Q1074.3876,788.69696,1074.7065,789.40265Q1075.5483,791.424,1078.3909,791.0234Q1079.6886,790.8332,1080.4337,790.3581Q1080.9127,790.04034,1081.1251,789.0844Q1081.7747,786.5002,1081.0817,779.78204 Z"/></g><g fill-opacity="0.996" id="change1_20"><path d="M1227.4159,780.7617Q1227.2854,785.9165,1227.1664,787.02136Q1227.0052,788.6969,1226.6863,789.4026Q1225.8445,791.42395,1223.002,791.0234Q1221.7042,790.8332,1220.9591,790.3581Q1220.4801,790.04034,1220.2677,789.0844Q1219.6182,786.5002,1220.3112,779.78204 Z"/></g></g><g><g id="change1_3"><path d="M1249.1461,930.6607L1249.1461,930.6607L1249.1461,930.6617L1246.5635,930.2797L1278.7434,823.86816L1278.6948,824.1061L1290.2146,719.2163C1290.2352,719.0292,1290.2955,718.84863,1290.3916,718.68677L1290.3916,718.68677L1304.7529,694.49567C1305.125,693.8691,1305.9346,693.66254,1306.5613,694.0346C1307.1879,694.4067,1307.3943,695.2163,1307.0222,695.843L1307.0222,695.843L1292.6609,720.03406L1292.8379,719.5044L1281.3181,824.39417C1281.3092,824.47485,1281.293,824.55444,1281.2695,824.6321L1281.2695,824.6321L1249.0896,931.04376C1248.9001,931.67,1248.2806,932.0628,1247.6334,931.9671C1246.9862,931.8714,1246.507,931.316,1246.507,930.6617L1246.507,930.6617L1246.507,930.6607C1246.507,929.93195,1247.0978,929.3411,1247.8265,929.3411C1248.5552,929.3411,1249.1461,929.93195,1249.1461,930.6607 Z"/></g><g id="change1_4"><path d="M1362.6443,930.66064L1362.6443,930.66064L1362.6443,930.6616L1365.2269,930.27966L1333.0469,823.86816L1333.0955,824.1061L1321.5757,719.2163C1321.555,719.0292,1321.4948,718.84863,1321.3987,718.68677L1321.3987,718.68677L1307.0372,694.4956C1306.6652,693.869,1305.8556,693.6625,1305.2289,694.03455C1304.6023,694.4066,1304.3959,695.2163,1304.768,695.843L1304.768,695.843L1319.1294,720.03406L1318.9524,719.5044L1330.4722,824.39417C1330.4811,824.47485,1330.4973,824.55444,1330.5208,824.6321L1330.5208,824.6321L1362.7008,931.0437C1362.8903,931.6699,1363.5098,932.06274,1364.157,931.96704C1364.8042,931.87134,1365.2834,931.3159,1365.2834,930.6616L1365.2834,930.6616L1365.2834,930.66064C1365.2834,929.9319,1364.6926,929.34106,1363.9639,929.34106C1363.2352,929.34106,1362.6443,929.9319,1362.6443,930.66064 Z"/></g><g id="change1_7"><path d="M1249.1835,931.0688L1249.1835,931.0688L1249.1835,931.06976L1247.1221,929.97833L1343.2777,864.6289L1343.3099,866.8329L1279.8643,826.36633C1279.4789,826.1205,1279.2482,825.6929,1279.2544,825.23584C1279.2606,824.7787,1279.5029,824.3574,1279.895,824.1223L1279.895,824.1223L1327.3418,795.6558L1327.3657,797.9331L1285.6785,774.1157C1285.2577,773.87524,1285.0027,773.4236,1285.0139,772.9392C1285.0253,772.45483,1285.3011,772.0155,1285.7327,771.7949L1285.7327,771.7949L1323.2931,752.59564L1323.2753,754.93646L1290.0133,737.2941C1289.5864,737.0677,1289.3174,736.62604,1289.3121,736.14276C1289.3069,735.6596,1289.5662,735.2121,1289.988,734.9764L1289.988,734.9764L1318.5826,718.9989L1318.7627,721.38635L1296.5497,713.0497C1296.0771,712.8723,1295.7472,712.4409,1295.6997,711.9385C1295.6521,711.4359,1295.8954,710.9503,1296.3263,710.6875L1296.3263,710.6875L1309.6958,702.5344C1310.318,702.1549,1311.13,702.3518,1311.5094,702.974C1311.8889,703.5962,1311.692,704.4081,1311.0698,704.7876L1311.0698,704.7876L1297.7004,712.9408L1297.477,710.57874L1319.69,718.9154C1320.171,719.09595,1320.5037,719.5392,1320.5422,720.05164C1320.5808,720.56396,1320.3186,721.0521,1319.87,721.30273L1319.87,721.30273L1291.2754,737.28033L1291.2501,734.9626L1324.5121,752.6049C1324.9468,752.8354,1325.217,753.28864,1325.2133,753.7807C1325.2095,754.27264,1324.9324,754.72174,1324.4943,754.9456L1324.4943,754.9456L1286.9338,774.1449L1286.9879,771.8241L1328.6754,795.64154C1329.0823,795.87396,1329.3353,796.30475,1329.3403,796.77325C1329.3452,797.24176,1329.1013,797.6778,1328.6993,797.9188L1328.6993,797.9188L1281.2528,826.3854L1281.2836,824.14124L1344.7291,864.6078C1345.1034,864.84656,1345.3325,865.2573,1345.339,865.70105C1345.3455,866.1449,1345.1284,866.56226,1344.7614,866.81177L1344.7614,866.81177L1248.6057,932.1611C1248.2014,932.43585,1247.6783,932.46466,1247.2463,932.2359C1246.8143,932.00726,1246.5443,931.5584,1246.5443,931.06976L1246.5443,931.06976L1246.5443,931.0688C1246.5443,930.3399,1247.1351,929.7492,1247.8639,929.7492C1248.5927,929.7492,1249.1835,930.3399,1249.1835,931.0688 Z"/></g><g id="change1_14"><path d="M1362.6069,931.0687L1362.6069,931.0687L1362.6069,931.0697L1364.6683,929.9783L1268.5126,864.6289L1268.4803,866.8329L1331.926,826.36633C1332.3114,826.1205,1332.5421,825.6929,1332.5359,825.23584C1332.5297,824.7787,1332.2874,824.3574,1331.8953,824.1223L1331.8953,824.1223L1284.4485,795.6559L1284.4246,797.9331L1326.1118,774.1157C1326.5326,773.87524,1326.7876,773.4236,1326.7764,772.9392C1326.765,772.45483,1326.4891,772.0155,1326.0576,771.7949L1326.0576,771.7949L1288.4972,752.5957L1288.515,754.9365L1321.777,737.29407C1322.2039,737.0676,1322.4729,736.626,1322.4781,736.1427C1322.4834,735.65955,1322.2241,735.21204,1321.8022,734.9763L1321.8022,734.9763L1293.2076,718.9989L1293.0276,721.38635L1315.2406,713.0497C1315.7131,712.8723,1316.0431,712.4409,1316.0906,711.9385C1316.1382,711.4359,1315.8949,710.9503,1315.464,710.6875L1315.464,710.6875L1302.0944,702.5344C1301.4722,702.1549,1300.6602,702.3518,1300.2808,702.974C1299.9012,703.5962,1300.0981,704.4081,1300.7203,704.7876L1300.7203,704.7876L1314.0898,712.9408L1314.3132,710.57874L1292.1003,718.9154C1291.6193,719.09595,1291.2866,719.5392,1291.248,720.05164C1291.2095,720.56396,1291.4717,721.0521,1291.9203,721.30273L1291.9203,721.30273L1320.5149,737.2803L1320.5402,734.9625L1287.2782,752.605C1286.8435,752.83545,1286.5732,753.2887,1286.577,753.78076C1286.5808,754.2727,1286.8579,754.7218,1287.296,754.9457L1287.296,754.9457L1324.8564,774.1449L1324.8024,771.8241L1283.1149,795.6416C1282.708,795.874,1282.455,796.3048,1282.45,796.7733C1282.4451,797.2418,1282.689,797.67786,1283.091,797.9188L1283.091,797.9188L1330.5375,826.3854L1330.5067,824.14124L1267.0612,864.6078C1266.6869,864.84656,1266.4578,865.2573,1266.4513,865.70105C1266.4448,866.1449,1266.6619,866.56226,1267.0289,866.81177L1267.0289,866.81177L1363.1847,932.161C1363.589,932.4358,1364.112,932.4646,1364.5441,932.23584C1364.9761,932.0072,1365.2461,931.55835,1365.2461,931.0697L1365.2461,931.0697L1365.2461,931.0687C1365.2461,930.33984,1364.6553,929.74915,1363.9265,929.74915C1363.1978,929.74915,1362.6069,930.33984,1362.6069,931.0687 Z"/></g><g id="change1_27"><path d="M1293.4291,720.24756L1293.4291,720.24756L1293.4291,720.2484L1292.1074,718.92883L1306.1904,718.90735C1306.9192,718.90625,1307.511,719.4961,1307.5121,720.225C1307.5132,720.95374,1306.9233,721.5454,1306.1946,721.5465L1306.1946,721.5465L1292.1116,721.5681C1291.7612,721.5686,1291.425,721.4298,1291.1771,721.18225C1290.9292,720.9348,1290.7899,720.59875,1290.7899,720.2484L1290.7899,720.2484L1290.7899,720.24756C1290.7899,719.5187,1291.3807,718.92786,1292.1095,718.92786C1292.8383,718.92786,1293.4291,719.5187,1293.4291,720.24756 Z"/></g><g id="change1_52"><path d="M1318.3612,720.24756L1318.3612,720.24756L1318.3612,720.2484L1319.6829,718.92883L1305.5999,718.90735C1304.8711,718.90625,1304.2793,719.4961,1304.2782,720.225C1304.2771,720.95374,1304.867,721.5454,1305.5957,721.5465L1305.5957,721.5465L1319.6787,721.5681C1320.029,721.5686,1320.3652,721.4298,1320.6132,721.18225C1320.8611,720.9348,1321.0004,720.59875,1321.0004,720.2484L1321.0004,720.2484L1321.0004,720.24756C1321.0004,719.5187,1320.4095,718.92786,1319.6808,718.92786C1318.952,718.92786,1318.3612,719.5187,1318.3612,720.24756 Z"/></g><g id="change1_25"><path d="M1291.6865,726.40155L1291.6865,726.40155L1291.6865,726.4025C1291.6865,726.9045,1291.4019,727.3631,1290.9519,727.5855L1290.9519,727.5855L1233.6244,755.9279L1233.0402,753.42535L1286.9086,753.4488C1287.6376,753.44916,1288.2281,754.0402,1288.2278,754.769C1288.2274,755.49774,1287.6364,756.0883,1286.9073,756.08795L1286.9073,756.08795L1233.039,756.06464C1232.4259,756.0644,1231.8938,755.6419,1231.7544,755.045C1231.6151,754.44806,1231.9052,753.8337,1232.4547,753.5621L1232.4547,753.5621L1289.7821,725.2195L1289.0474,726.4025L1289.0474,726.40155C1289.0474,725.6728,1289.6383,725.0819,1290.367,725.0819C1291.0957,725.0819,1291.6865,725.6728,1291.6865,726.40155 Z"/></g><g id="change1_60"><path d="M1320.1038,726.4015L1320.1038,726.4015L1320.1038,726.40247C1320.1038,726.9044,1320.3884,727.36304,1320.8384,727.58545L1320.8384,727.58545L1378.1659,755.92786L1378.7501,753.4253L1324.8817,753.4487C1324.1527,753.4491,1323.5621,754.04016,1323.5625,754.7689C1323.5629,755.4977,1324.1539,756.08826,1324.8829,756.0879L1324.8829,756.0879L1378.7513,756.0646C1379.3644,756.06433,1379.8965,755.64185,1380.0359,755.0449C1380.1752,754.448,1379.8851,753.8336,1379.3356,753.562L1379.3356,753.562L1322.0082,725.2195L1322.7429,726.40247L1322.7429,726.4015C1322.7429,725.6727,1322.152,725.0819,1321.4233,725.0819C1320.6946,725.0819,1320.1038,725.6727,1320.1038,726.4015 Z"/></g><g id="change1_37"><path d="M1290.5814,728.43256L1290.5814,728.43256L1290.5814,728.43353C1290.5814,728.68207,1290.5114,728.9255,1290.379,729.1359L1290.379,729.1359L1274.1669,754.92413C1273.9502,755.26886,1273.5863,755.4943,1273.181,755.53485C1272.7759,755.5754,1272.3746,755.4266,1272.0939,755.13165L1272.0939,755.13165L1260.0442,742.47345L1262.0717,742.33356L1253.0182,754.9323C1252.5929,755.52423,1251.7683,755.65924,1251.1765,755.23395C1250.5847,754.80865,1250.4496,753.9841,1250.8749,753.3923L1250.8749,753.3923L1259.9283,740.7935C1260.1576,740.4744,1260.5172,740.2741,1260.9093,740.24713C1261.3013,740.22003,1261.6849,740.3691,1261.9558,740.65375L1261.9558,740.65375L1274.0055,753.31195L1271.9324,753.5195L1288.1445,727.73126L1287.9423,728.43353L1287.9423,728.43256C1287.9423,727.7038,1288.5331,727.113,1289.2618,727.113C1289.9906,727.113,1290.5814,727.7038,1290.5814,728.43256 Z"/></g><g id="change1_56"><path d="M1321.2087,728.4327L1321.2087,728.4327L1321.2087,728.43365C1321.2087,728.6822,1321.2788,728.9256,1321.4111,729.13605L1321.4111,729.13605L1337.6233,754.92426C1337.84,755.269,1338.2039,755.49445,1338.6091,755.535C1339.0143,755.5755,1339.4155,755.4267,1339.6963,755.1318L1339.6963,755.1318L1351.746,742.4736L1349.7185,742.3337L1358.772,754.93243C1359.1973,755.52435,1360.0219,755.65936,1360.6136,755.2341C1361.2054,754.8088,1361.3406,753.9842,1360.9153,753.3924L1360.9153,753.3924L1351.8618,740.79364C1351.6326,740.47455,1351.273,740.27423,1350.8809,740.24725C1350.4889,740.22015,1350.1052,740.3692,1349.8344,740.6539L1349.8344,740.6539L1337.7847,753.3121L1339.8578,753.5196L1323.6456,727.7314L1323.8479,728.43365L1323.8479,728.4327C1323.8479,727.7039,1323.2571,727.1131,1322.5283,727.1131C1321.7996,727.1131,1321.2087,727.7039,1321.2087,728.4327 Z"/></g><g id="change1_47"><path d="M1286.2225,771.80225L1286.2225,771.80225L1286.2225,771.8032C1286.2225,772.2993,1285.9443,772.75354,1285.5023,772.9789L1285.5023,772.9789L1228.7228,801.9243L1228.1077,799.4292L1282.0275,798.7853C1282.7562,798.7765,1283.354,799.3602,1283.3627,800.089C1283.3713,800.81775,1282.7877,801.41565,1282.059,801.4243L1282.059,801.4243L1228.139,802.06824C1227.5261,802.07556,1226.9889,801.6598,1226.8422,801.06445C1226.6954,800.46924,1226.9779,799.85144,1227.524,799.573L1227.524,799.573L1284.3036,770.62756L1283.5834,771.8032L1283.5834,771.80225C1283.5834,771.0735,1284.1742,770.48267,1284.903,770.48267C1285.6317,770.48267,1286.2225,771.0735,1286.2225,771.80225 Z"/></g><g id="change1_32"><path d="M1325.5677,771.80225L1325.5677,771.80225L1325.5677,771.8032C1325.5677,772.2993,1325.846,772.75354,1326.288,772.9789L1326.288,772.9789L1383.0675,801.9243L1383.6826,799.4292L1329.7628,798.7853C1329.034,798.7765,1328.4363,799.3602,1328.4276,800.089C1328.419,800.81775,1329.0026,801.41565,1329.7313,801.4243L1329.7313,801.4243L1383.6512,802.06824C1384.2642,802.07556,1384.8014,801.6598,1384.9481,801.06445C1385.0948,800.46924,1384.8124,799.85144,1384.2662,799.573L1384.2662,799.573L1327.4867,770.62756L1328.2069,771.8032L1328.2069,771.80225C1328.2069,771.0735,1327.6161,770.48267,1326.8873,770.48267C1326.1586,770.48267,1325.5677,771.0735,1325.5677,771.80225 Z"/></g><g id="change1_19"><path d="M1285.6692,773.3793L1285.6692,773.3793L1285.6692,773.38025C1285.6692,773.6177,1285.6051,773.8506,1285.4838,774.0547L1285.4838,774.0547L1270.0009,800.0902C1269.7909,800.44336,1269.4285,800.6786,1269.0204,800.72644C1268.6123,800.7742,1268.2051,800.6293,1267.9192,800.3342L1267.9192,800.3342L1255.5879,787.6129L1257.6685,787.3711L1249.6263,800.83704C1249.2527,801.46277,1248.4424,801.6671,1247.8168,801.29346C1247.191,800.9197,1246.9868,800.1095,1247.3604,799.4839L1247.3604,799.4839L1255.4025,786.0178C1255.6129,785.6654,1255.9753,785.431,1256.383,785.38367C1256.7908,785.3363,1257.1974,785.4812,1257.483,785.776L1257.483,785.776L1269.8143,798.4973L1267.7325,798.74133L1283.2153,772.7058L1283.03,773.38025L1283.03,773.3793C1283.03,772.6505,1283.6208,772.0597,1284.3496,772.0597C1285.0782,772.0597,1285.6692,772.6504,1285.6692,773.3793 Z"/></g><g id="change1_35"><path d="M1326.1211,773.3793L1326.1211,773.3793L1326.1211,773.38025C1326.1211,773.6177,1326.1852,773.8506,1326.3065,774.0547L1326.3065,774.0547L1341.7894,800.0902C1341.9994,800.44336,1342.3618,800.6786,1342.7699,800.72644C1343.178,800.7742,1343.5852,800.6293,1343.8711,800.3342L1343.8711,800.3342L1356.2024,787.6129L1354.1218,787.3711L1362.164,800.83704C1362.5376,801.46277,1363.3479,801.6671,1363.9735,801.29346C1364.5992,800.9197,1364.8035,800.1095,1364.4299,799.4839L1364.4299,799.4839L1356.3878,786.0178C1356.1774,785.6654,1355.815,785.431,1355.4072,785.38367C1354.9995,785.3363,1354.5929,785.4812,1354.3073,785.776L1354.3073,785.776L1341.976,798.4973L1344.0577,798.74133L1328.575,772.7058L1328.7603,773.38025L1328.7603,773.3793C1328.7603,772.6505,1328.1694,772.0597,1327.4407,772.0597C1326.712,772.0597,1326.1211,772.6504,1326.1211,773.3793 Z"/></g><g fill-opacity="0.996" id="change1_63"><path d="M1250.1206,755.6136Q1249.8209,758.7004,1249.8931,759.5008Q1249.9786,760.87897,1250.3767,761.75604Q1251.4318,764.1148,1253.866,764.0031Q1256.0454,763.7552,1256.7931,761.3288Q1257.5521,759.0347,1256.7335,755.0461 Z"/></g><g fill-opacity="0.996" id="change1_42"><path d="M1361.6697,755.6135Q1361.9694,758.7003,1361.8972,759.50073Q1361.8116,760.8789,1361.4136,761.756Q1360.3585,764.11475,1357.9243,764.00305Q1355.7449,763.7551,1354.9972,761.32874Q1354.2382,759.03467,1355.0568,755.046 Z"/></g><g fill-opacity="0.996" id="change1_8"><path d="M1246.0719,801.4768Q1246.1736,805.4962,1246.2665,806.35767Q1246.3922,807.6642,1246.6411,808.2146Q1247.2975,809.7908,1249.5139,809.4783Q1250.5259,809.32996,1251.1067,808.9595Q1251.4802,808.7117,1251.6459,807.9663Q1252.1525,805.9512,1251.612,800.71265 Z"/></g><g fill-opacity="0.996" id="change1_12"><path d="M1365.7179,801.4768Q1365.6162,805.4962,1365.5233,806.35767Q1365.3976,807.6642,1365.1487,808.2146Q1364.4923,809.7908,1362.2759,809.4783Q1361.2639,809.32996,1360.6831,808.9595Q1360.3096,808.7117,1360.1439,807.9663Q1359.6373,805.9512,1360.1777,800.71265 Z"/></g></g><g><g id="change1_57"><path d="M1389.7622,920.6502L1389.7622,920.6502L1389.7622,920.6512L1387.6659,920.3411L1413.7836,833.9756L1413.744,834.1687L1423.0935,749.0381C1423.1101,748.8862,1423.1592,748.7396,1423.237,748.6083L1423.237,748.6083L1434.893,728.97406C1435.195,728.4655,1435.852,728.2979,1436.3607,728.5999C1436.8693,728.9018,1437.0369,729.559,1436.7349,730.06757L1436.7349,730.06757L1425.0791,749.70166L1425.2227,749.27185L1415.8733,834.40247C1415.8661,834.4679,1415.8528,834.5326,1415.8337,834.5956L1415.8337,834.5956L1389.7162,920.96124C1389.5625,921.46954,1389.0597,921.7884,1388.5344,921.71075C1388.0092,921.633,1387.62,921.1822,1387.62,920.6512L1387.62,920.6512L1387.62,920.6502C1387.62,920.0588,1388.0996,919.5793,1388.691,919.5793C1389.2826,919.5793,1389.7622,920.0588,1389.7622,920.6502 Z"/></g><g id="change1_18"><path d="M1481.879,920.6501L1481.879,920.6501L1481.879,920.65106L1483.9753,920.341L1457.8575,833.9755L1457.8971,834.16864L1448.5474,749.038C1448.5308,748.88617,1448.4817,748.73956,1448.4038,748.6082L1448.4038,748.6082L1436.7479,728.97406C1436.4459,728.4655,1435.7888,728.2979,1435.2802,728.5999C1434.7716,728.9018,1434.604,729.559,1434.906,730.06757L1434.906,730.06757L1446.5618,749.70166L1446.4182,749.27185L1455.7678,834.4024C1455.775,834.46783,1455.7883,834.53253,1455.8074,834.5955L1455.8074,834.5955L1481.925,920.9611C1482.0787,921.4694,1482.5815,921.78827,1483.1068,921.71063C1483.6321,921.6329,1484.0212,921.18207,1484.0212,920.65106L1484.0212,920.65106L1484.0212,920.6501C1484.0212,920.05865,1483.5416,919.57916,1482.9502,919.57916C1482.3586,919.57916,1481.879,920.05865,1481.879,920.6501 Z"/></g><g id="change1_40"><path d="M1389.7926,920.9815L1389.7926,920.9815L1389.7926,920.9825L1388.1195,920.09674L1466.1609,867.058L1466.1869,868.8467L1414.6934,836.0032C1414.3806,835.8037,1414.1934,835.45654,1414.1985,835.0856C1414.2036,834.7146,1414.4003,834.3727,1414.7184,834.18176L1414.7184,834.18176L1453.2269,811.0778L1453.2467,812.9262L1419.4126,793.59564C1419.0712,793.40045,1418.864,793.0339,1418.8732,792.6407C1418.8823,792.2476,1419.1062,791.89105,1419.4564,791.712L1419.4564,791.712L1449.941,776.1294L1449.9268,778.0292L1422.9303,763.7103C1422.5839,763.5265,1422.3655,763.1681,1422.3612,762.7759C1422.3569,762.38367,1422.5673,762.0205,1422.9098,761.8292L1422.9098,761.8292L1446.118,748.8616L1446.2642,750.7993L1428.2355,744.0332C1427.8518,743.88904,1427.584,743.53894,1427.5453,743.1312C1427.5067,742.7234,1427.7043,742.3292,1428.0542,742.11597L1428.0542,742.11597L1438.905,735.4985C1439.41,735.1905,1440.0691,735.35016,1440.3771,735.8553C1440.685,736.36035,1440.5251,737.0194,1440.0203,737.3274L1440.0203,737.3274L1429.1693,743.9448L1428.988,742.0277L1447.0167,748.7938C1447.4072,748.9404,1447.6771,749.3003,1447.7085,749.71606C1447.7397,750.13196,1447.5269,750.5282,1447.1628,750.73157L1447.1628,750.73157L1423.9545,763.6992L1423.934,761.818L1450.9302,776.13696C1451.283,776.3241,1451.5026,776.6919,1451.4995,777.0912C1451.4965,777.4905,1451.2715,777.855,1450.9159,778.03674L1450.9159,778.03674L1420.4313,793.6193L1420.4751,791.7358L1454.3092,811.06635C1454.6393,811.25494,1454.8448,811.60455,1454.8489,811.9848C1454.8529,812.3652,1454.655,812.71906,1454.329,812.9146L1454.329,812.9146L1415.8204,836.0187L1415.8453,834.19727L1467.3389,867.0408C1467.6426,867.2345,1467.8286,867.5679,1467.8339,867.9281C1467.8391,868.2883,1467.663,868.6271,1467.365,868.82947L1467.365,868.82947L1389.3236,921.8682C1388.9955,922.09125,1388.5709,922.11456,1388.2203,921.929C1387.8698,921.74335,1387.6505,921.3792,1387.6505,920.9825L1387.6505,920.9825L1387.6505,920.9815C1387.6505,920.38995,1388.1301,919.91046,1388.7216,919.91046C1389.313,919.91046,1389.7926,920.38995,1389.7926,920.9815 Z"/></g><g id="change1_2"><path d="M1481.8486,920.9814L1481.8486,920.9814L1481.8486,920.98236L1483.5217,920.0966L1405.4802,867.05804L1405.4542,868.84674L1456.9478,836.0031C1457.2605,835.80365,1457.4478,835.4565,1457.4426,835.0855C1457.4375,834.71454,1457.2408,834.3726,1456.9227,834.1817L1456.9227,834.1817L1418.4141,811.0778L1418.3943,812.9262L1452.2284,793.5956C1452.5698,793.4004,1452.777,793.0338,1452.7678,792.6406C1452.7587,792.24756,1452.5348,791.891,1452.1846,791.7119L1452.1846,791.7119L1421.7,776.1294L1421.7142,778.0292L1448.7107,763.71027C1449.0571,763.5264,1449.2755,763.168,1449.2798,762.7758C1449.284,762.3836,1449.0737,762.02045,1448.7312,761.82916L1448.7312,761.82916L1425.5228,748.8616L1425.3767,750.7993L1443.4054,744.0332C1443.7891,743.88904,1444.0569,743.53894,1444.0956,743.1312C1444.1342,742.7234,1443.9365,742.3292,1443.5867,742.11597L1443.5867,742.11597L1432.7358,735.4985C1432.2308,735.1905,1431.5718,735.35016,1431.2638,735.8553C1430.9558,736.36035,1431.1157,737.0194,1431.6206,737.3274L1431.6206,737.3274L1442.4716,743.9448L1442.6528,742.0277L1424.6241,748.7938C1424.2336,748.9404,1423.9637,749.3003,1423.9324,749.71606C1423.9011,750.13196,1424.114,750.5282,1424.478,750.73157L1424.478,750.73157L1447.6865,763.69916L1447.707,761.81793L1420.7108,776.13696C1420.358,776.3241,1420.1384,776.6919,1420.1415,777.0912C1420.1445,777.4905,1420.3695,777.855,1420.7251,778.03674L1420.7251,778.03674L1451.2097,793.61926L1451.1659,791.7357L1417.3318,811.06635C1417.0017,811.25494,1416.7961,811.60455,1416.7921,811.9848C1416.7881,812.3652,1416.986,812.71906,1417.312,812.9146L1417.312,812.9146L1455.8207,836.0186L1455.7958,834.1972L1404.3022,867.04083C1403.9985,867.23456,1403.8125,867.56793,1403.8073,867.92816C1403.802,868.2884,1403.9781,868.62714,1404.2761,868.8295L1404.2761,868.8295L1482.3176,921.8681C1482.6458,922.0911,1483.0703,922.11444,1483.4209,921.9289C1483.7715,921.7432,1483.9907,921.3791,1483.9907,920.98236L1483.9907,920.98236L1483.9907,920.9814C1483.9907,920.38983,1483.5111,919.91034,1482.9197,919.91034C1482.3282,919.91034,1481.8486,920.38983,1481.8486,920.9814 Z"/></g><g id="change1_21"><path d="M1425.7028,749.8749L1425.7028,749.8749L1425.7028,749.87585L1424.6301,748.80493L1436.0603,748.7875C1436.6517,748.7866,1437.1321,749.2654,1437.1329,749.8568C1437.1338,750.44836,1436.6549,750.9286,1436.0635,750.92944L1436.0635,750.92944L1424.6333,750.9469C1424.349,750.9474,1424.0762,750.8347,1423.875,750.6338C1423.6737,750.433,1423.5607,750.1603,1423.5607,749.87585L1423.5607,749.87585L1423.5607,749.8749C1423.5607,749.28345,1424.0403,748.80396,1424.6317,748.80396C1425.2231,748.80396,1425.7028,749.28345,1425.7028,749.8749 Z"/></g><g id="change1_43"><path d="M1445.9381,749.8749L1445.9381,749.8749L1445.9381,749.87585L1447.0107,748.8049L1435.5806,748.7875C1434.9891,748.7866,1434.5088,749.2654,1434.5079,749.8568C1434.5071,750.44836,1434.986,750.9286,1435.5774,750.92944L1435.5774,750.92944L1447.0076,750.94684C1447.2919,750.9473,1447.5647,750.83466,1447.7659,750.6337C1447.9672,750.4329,1448.0802,750.1602,1448.0802,749.8758L1448.0802,749.8758L1448.0802,749.8748C1448.0802,749.2834,1447.6006,748.8039,1447.0092,748.8039C1446.4177,748.80396,1445.9381,749.28345,1445.9381,749.8749 Z"/></g><g id="change1_34"><path d="M1424.2886,754.86975L1424.2886,754.86975L1424.2886,754.8707C1424.2886,755.2781,1424.0574,755.65027,1423.6921,755.8308L1423.6921,755.8308L1377.1642,778.83405L1376.6901,776.8029L1420.4108,776.82184C1421.0022,776.8221,1421.4816,777.3018,1421.4813,777.8934C1421.4811,778.4848,1421.0012,778.96405,1420.4098,778.9638L1420.4098,778.9638L1376.6891,778.9449C1376.1915,778.94464,1375.7599,778.60187,1375.6467,778.1174C1375.5334,777.6329,1375.769,777.13434,1376.215,776.91376L1376.215,776.91376L1422.7428,753.91064L1422.1464,754.8707L1422.1464,754.86975C1422.1464,754.2782,1422.626,753.7987,1423.2175,753.7987C1423.809,753.7987,1424.2886,754.2782,1424.2886,754.86975 Z"/></g><g id="change1_22"><path d="M1447.3523,754.8697L1447.3523,754.8697L1447.3523,754.87067C1447.3523,755.278,1447.5835,755.6502,1447.9487,755.83075L1447.9487,755.83075L1494.4768,778.8339L1494.9509,776.8028L1451.2302,776.8218C1450.6388,776.822,1450.1594,777.30176,1450.1597,777.8933C1450.1599,778.48474,1450.6398,778.964,1451.2312,778.96375L1451.2312,778.96375L1494.9519,778.94476C1495.4495,778.9445,1495.8811,778.60175,1495.9943,778.11725C1496.1075,777.63275,1495.872,777.1342,1495.426,776.91364L1495.426,776.91364L1448.8981,753.9106L1449.4945,754.87067L1449.4945,754.8697C1449.4945,754.27814,1449.0149,753.79865,1448.4233,753.79865C1447.8319,753.79865,1447.3523,754.27814,1447.3523,754.8697 Z"/></g><g id="change1_6"><path d="M1423.3915,756.5182L1423.3915,756.5182L1423.3915,756.51904C1423.3915,756.7208,1423.3345,756.91833,1423.227,757.0891L1423.227,757.0891L1410.0693,778.0195C1409.8934,778.29926,1409.5983,778.48224,1409.2694,778.5151C1408.9404,778.54803,1408.6149,778.4272,1408.3868,778.1878L1408.3868,778.1878L1398.607,767.91394L1400.2526,767.8004L1392.9047,778.02594C1392.5596,778.5063,1391.8904,778.6159,1391.41,778.2707C1390.9297,777.9256,1390.8202,777.2563,1391.1653,776.77594L1391.1653,776.77594L1398.5132,766.5504C1398.6993,766.2915,1398.991,766.1289,1399.3092,766.10706C1399.6273,766.0851,1399.9387,766.20605,1400.1586,766.437L1400.1586,766.437L1409.9385,776.711L1408.256,776.87946L1421.4137,755.9491L1421.2493,756.51904L1421.2493,756.5182C1421.2493,755.92664,1421.7289,755.44714,1422.3203,755.44714C1422.9119,755.44714,1423.3915,755.92664,1423.3915,756.5182 Z"/></g><g id="change1_64"><path d="M1448.2493,756.5182L1448.2493,756.5182L1448.2493,756.51904C1448.2493,756.7208,1448.3063,756.91833,1448.4137,757.0891L1448.4137,757.0891L1461.5714,778.0195C1461.7473,778.29926,1462.0425,778.48224,1462.3713,778.515C1462.7003,778.548,1463.0259,778.4271,1463.2539,778.18774L1463.2539,778.18774L1473.0337,767.9139L1471.3882,767.80035L1478.7361,778.0259C1479.0812,778.5062,1479.7504,778.61584,1480.2307,778.2706C1480.711,777.92554,1480.8206,777.2562,1480.4755,776.7759L1480.4755,776.7759L1473.1276,766.55035C1472.9414,766.29144,1472.6498,766.12885,1472.3315,766.107C1472.0134,766.085,1471.702,766.206,1471.4822,766.43695L1471.4822,766.43695L1461.7023,776.711L1463.3848,776.8794L1450.227,755.9491L1450.3915,756.51904L1450.3915,756.5182C1450.3915,755.92664,1449.9119,755.44714,1449.3204,755.44714C1448.7289,755.44714,1448.2493,755.92664,1448.2493,756.5182 Z"/></g><g id="change1_10"><path d="M1419.854,791.71783L1419.854,791.71783L1419.854,791.7188C1419.854,792.1215,1419.628,792.4902,1419.2693,792.67303L1419.2693,792.67303L1373.1859,816.1655L1372.6866,814.1404L1416.4487,813.6178C1417.0402,813.6107,1417.5254,814.0845,1417.5325,814.676C1417.5396,815.26746,1417.0658,815.7527,1416.4744,815.75977L1416.4744,815.75977L1372.7122,816.2822C1372.2147,816.2882,1371.7787,815.9507,1371.6595,815.46765C1371.5404,814.9846,1371.7697,814.48315,1372.213,814.2572L1372.213,814.2572L1418.2964,790.7647L1417.7118,791.7188L1417.7118,791.71783C1417.7118,791.1264,1418.1914,790.6469,1418.7828,790.6469C1419.3744,790.6469,1419.854,791.1264,1419.854,791.71783 Z"/></g><g id="change1_41"><path d="M1451.787,791.7178L1451.787,791.7178L1451.787,791.71875C1451.787,792.12146,1452.013,792.4901,1452.3717,792.673L1452.3717,792.673L1498.4551,816.1654L1498.9543,814.14026L1455.1923,813.61774C1454.6008,813.61066,1454.1156,814.0844,1454.1085,814.67596C1454.1014,815.2674,1454.5752,815.7526,1455.1666,815.7597L1455.1666,815.7597L1498.9288,816.2821C1499.4263,816.2881,1499.8623,815.95056,1499.9814,815.4675C1500.1006,814.9845,1499.8713,814.48303,1499.428,814.2571L1499.428,814.2571L1453.3446,790.76465L1453.9292,791.71875L1453.9292,791.7178C1453.9292,791.12634,1453.4496,790.64685,1452.8582,790.64685C1452.2666,790.64685,1451.787,791.12634,1451.787,791.7178 Z"/></g><g id="change1_5"><path d="M1419.4049,792.99786L1419.4049,792.99786L1419.4049,792.99884C1419.4049,793.19147,1419.3528,793.3807,1419.2544,793.5462L1419.2544,793.5462L1406.688,814.677C1406.5176,814.9635,1406.2233,815.15454,1405.8921,815.19336C1405.5609,815.23206,1405.2305,815.1144,1404.9984,814.875L1404.9984,814.875L1394.9902,804.55L1396.6787,804.3537L1390.1514,815.2831C1389.848,815.7909,1389.1906,815.95667,1388.6827,815.65344C1388.1748,815.3501,1388.009,814.6925,1388.3124,814.1847L1388.3124,814.1847L1394.8397,803.25543C1395.0105,802.9694,1395.3047,802.7791,1395.6356,802.74066C1395.9664,802.7022,1396.2965,802.8199,1396.5283,803.05914L1396.5283,803.05914L1406.5365,813.38416L1404.8469,813.58215L1417.4133,792.4515L1417.2628,792.99884L1417.2628,792.99786C1417.2628,792.4063,1417.7424,791.9268,1418.3339,791.9268C1418.9253,791.9268,1419.4049,792.4063,1419.4049,792.99786 Z"/></g><g id="change1_44"><path d="M1452.2361,792.9978L1452.2361,792.9978L1452.2361,792.9988C1452.2361,793.1914,1452.2882,793.3806,1452.3866,793.54614L1452.3866,793.54614L1464.953,814.67694C1465.1234,814.96344,1465.4177,815.1545,1465.7489,815.1933C1466.0801,815.232,1466.4105,815.1143,1466.6426,814.87494L1466.6426,814.87494L1476.6508,804.5499L1474.9623,804.35364L1481.4896,815.28296C1481.793,815.7908,1482.4504,815.95654,1482.9583,815.6533C1483.4662,815.35,1483.632,814.6924,1483.3286,814.1846L1483.3286,814.1846L1476.8013,803.2554C1476.6305,802.96936,1476.3363,802.77905,1476.0054,802.7406C1475.6746,802.70215,1475.3445,802.8198,1475.1127,803.0591L1475.1127,803.0591L1465.1045,813.3841L1466.7941,813.5821L1454.2277,792.4514L1454.3782,792.9988L1454.3782,792.9978C1454.3782,792.40625,1453.8986,791.92676,1453.3071,791.92676C1452.7157,791.92676,1452.2361,792.40625,1452.2361,792.9978 Z"/></g><g fill-opacity="0.996" id="change1_59"><path d="M1390.5532,778.5789Q1390.3098,781.08417,1390.3683,781.7338Q1390.438,782.85236,1390.7611,783.5643Q1391.6171,785.4786,1393.5928,785.3879Q1395.3616,785.1866,1395.9688,783.21747Q1396.5845,781.3555,1395.9203,778.1182 Z"/></g><g fill-opacity="0.996" id="change1_24"><path d="M1481.0878,778.5788Q1481.3312,781.08405,1481.2727,781.7337Q1481.203,782.85223,1480.8799,783.56415Q1480.0239,785.4785,1478.0482,785.3878Q1476.2794,785.1865,1475.6722,783.2174Q1475.0565,781.35547,1475.7207,778.11816 Z"/></g><g fill-opacity="0.996" id="change1_28"><path d="M1387.2666,815.80225Q1387.3495,819.0646,1387.4246,819.7637Q1387.5267,820.824,1387.7289,821.27075Q1388.2616,822.5502,1390.0604,822.2964Q1390.8818,822.17615,1391.3533,821.87537Q1391.6564,821.6743,1391.7909,821.06934Q1392.2017,819.4337,1391.7633,815.18225 Z"/></g><g fill-opacity="0.996" id="change1_45"><path d="M1484.3739,815.8021Q1484.291,819.06445,1484.216,819.76355Q1484.1138,820.82385,1483.9116,821.2706Q1483.379,822.55005,1481.5802,822.29626Q1480.7588,822.176,1480.2874,821.87524Q1479.9843,821.67426,1479.8496,821.0693Q1479.4388,819.43365,1479.8772,815.1822 Z"/></g></g><g id="change1_53"><path d="M1077.6849,785.5894L1077.6849,785.5894Q1108.29,808.5278,1166.5292,816.639L1166.5273,816.63873Q1188.7483,819.6923,1217.0583,816.4586L1217.054,816.4591Q1236.0151,814.2112,1247.0841,806.2621C1247.5481,805.92883,1248.1943,806.0349,1248.5275,806.4989C1248.8606,806.96277,1248.7546,807.609,1248.2906,807.94226L1248.2906,807.94226Q1236.7882,816.20264,1217.2976,818.5133L1217.2932,818.5138Q1188.7245,821.77704,1166.2457,818.68805L1166.2439,818.6878Q1107.4764,810.5031,1076.4443,787.24457C1075.9872,786.9019,1075.8943,786.2536,1076.2369,785.7967C1076.5796,785.33954,1077.2279,785.24677,1077.6849,785.5894 Z"/></g><g id="change1_61"><path d="M1084.096,726.6863L1084.096,726.6863Q1111.2915,742.69824,1169.4917,755.2986L1169.4543,755.29126Q1213.7793,763.1914,1250.6238,757.38153C1251.1881,757.29254,1251.7177,757.6779,1251.8065,758.2421C1251.8955,758.80634,1251.5101,759.3359,1250.9459,759.42487L1250.9459,759.42487Q1213.7582,765.2888,1169.0913,757.32776L1169.0541,757.32043Q1110.5286,744.64966,1083.0463,728.46875C1082.554,728.17896,1082.39,727.54504,1082.6798,727.05273C1082.9696,726.56055,1083.6036,726.3965,1084.096,726.6863 Z"/></g><g id="change1_30"><path d="M1218.0973,725.64716L1218.0973,725.64716Q1237.4554,741.12604,1274.2814,753.1014C1274.8246,753.27814,1275.1217,753.86176,1274.9451,754.40497C1274.7684,754.9482,1274.1848,755.2453,1273.6416,755.06866L1273.6416,755.06866Q1236.4578,742.977,1216.8053,727.2627C1216.3593,726.9059,1216.2867,726.2551,1216.6434,725.80896C1217.0002,725.36285,1217.6511,725.29034,1218.0973,725.64716 Z"/></g><g id="change1_23"><path d="M1357.1964,757.93744L1357.1964,757.93744L1357.2064,757.7408C1357.2354,757.17035,1357.7214,756.73145,1358.2919,756.7604C1358.8624,756.7894,1359.3014,757.2754,1359.2723,757.8458L1359.2723,757.8458L1359.2623,758.0425C1359.2334,758.61304,1358.7474,759.0519,1358.1769,759.02295C1357.6063,758.99384,1357.1674,758.5079,1357.1964,757.93744 Z"/></g><g id="change1_48"><path d="M1356.9171,760.1092L1356.9171,760.1092Q1356.7083,760.08185,1356.189,760.1325L1356.1956,760.1318Q1352.3542,760.53156,1346.6633,761.03705L1346.6458,761.0384Q1342.2009,761.3571,1339.7405,761.4821L1339.7467,761.48175Q1330.3469,762.0162,1323.5902,761.9117L1323.594,761.9117Q1315.5798,761.8173,1307.2645,761.0306L1307.2599,761.0301Q1301.1752,760.4266,1297.0651,759.38544C1296.5114,759.2452,1296.1761,758.68256,1296.3164,758.12885C1296.4568,757.575,1297.0194,757.2399,1297.573,757.3802L1297.573,757.3802Q1301.5333,758.38324,1307.4641,758.9716L1307.4595,758.9711Q1315.6902,759.74994,1323.6184,759.8433L1323.6222,759.8433Q1330.3035,759.9467,1339.6293,759.41656L1339.6355,759.4162Q1342.0714,759.2924,1346.4979,758.97516L1346.4803,758.9765Q1352.1582,758.4722,1355.9814,758.0744L1355.9882,758.07367Q1356.7423,758.0002,1357.1857,758.05817C1357.7521,758.13245,1358.1512,758.6516,1358.077,759.218C1358.0028,759.7844,1357.4835,760.1834,1356.9171,760.1092 Z"/></g><g id="change1_29"><path d="M1254.2498,759.3006L1254.2498,759.3006Q1294.0242,775.5833,1344.507,785.48444L1344.4814,785.4798Q1377.4637,791.09406,1391.4774,783.0922C1391.9735,782.809,1392.6052,782.9815,1392.8884,783.4776C1393.1718,783.9737,1392.9993,784.6054,1392.5032,784.8886L1392.5032,784.8886Q1377.8468,793.2575,1344.1343,787.519L1344.1089,787.51434Q1293.4279,777.5744,1253.466,761.2149C1252.9374,760.9986,1252.6843,760.3946,1252.9006,759.8659C1253.1171,759.33734,1253.7211,759.08417,1254.2498,759.3006 Z"/></g><g id="change1_55"><path d="M1224.2194,785.16614L1224.2194,785.16614Q1227.8805,789.2886,1261.3303,800.7134L1261.2994,800.70337Q1286.1553,808.33325,1306.4272,811.2804L1306.4332,811.2814Q1339.6394,816.3069,1360.8002,805.55975C1361.3094,805.30096,1361.932,805.5042,1362.1908,806.0135C1362.4495,806.52277,1362.2463,807.1453,1361.7369,807.404L1361.7369,807.404Q1339.9851,818.4513,1306.1238,813.32666L1306.1298,813.3275Q1285.7004,810.3574,1260.6925,802.681L1260.6617,802.671Q1226.6958,791.06995,1222.6726,786.5397C1222.2933,786.1127,1222.332,785.45886,1222.7592,785.0796C1223.1863,784.7003,1223.84,784.739,1224.2194,785.16614 Z"/></g><g id="change1_49"><path d="M1250.141,806.48486L1250.141,806.48486Q1285.5177,825.8114,1333.316,831.5088L1333.2996,831.50696Q1349.9907,833.2245,1362.5033,830.5145L1362.5027,830.51465Q1378.8785,826.95825,1388.5511,819.9896C1389.0145,819.65576,1389.6609,819.76074,1389.9949,820.22424C1390.3287,820.68774,1390.2238,821.3341,1389.7604,821.66797L1389.7604,821.66797Q1379.7383,828.8883,1362.9418,832.53613L1362.9412,832.53625Q1350.1064,835.3159,1333.0878,833.5647L1333.0712,833.56287Q1284.8767,827.8181,1249.1494,808.3002C1248.6481,808.02637,1248.4636,807.39795,1248.7374,806.8966C1249.0114,806.3954,1249.6396,806.21106,1250.141,806.48486 Z"/></g><g id="change1_62"><path d="M1362.5494,805.32806L1362.5494,805.32806Q1383.8949,817.99255,1420.3613,822.4718L1420.3328,822.4686Q1457.8649,826.01874,1480.8804,817.94904C1481.4194,817.7601,1482.0096,818.0439,1482.1986,818.58295C1482.3875,819.122,1482.1038,819.7121,1481.5647,819.9012L1481.5647,819.9012Q1458.1213,828.1209,1420.1378,824.52795L1420.1091,824.5248Q1383.2123,819.9928,1361.4939,807.107C1361.0026,806.8156,1360.8406,806.1811,1361.1321,805.6899C1361.4236,805.19855,1362.0581,805.03656,1362.5494,805.32806 Z"/></g><g id="change1_38"><path d="M1359.8793,759.09863L1359.8793,759.09863Q1383.662,774.6685,1420.077,782.4544L1420.0547,782.4499Q1453.1917,788.77625,1475.9507,781.3806C1476.4939,781.2041,1477.0775,781.50134,1477.254,782.04456C1477.4305,782.5879,1477.1332,783.1714,1476.59,783.3479L1476.59,783.3479Q1453.3256,790.9077,1419.6669,784.4819L1419.6445,784.47736Q1382.8523,776.61066,1358.7463,760.8292C1358.2684,760.51636,1358.1346,759.87537,1358.4475,759.39746C1358.7604,758.91956,1359.4014,758.78577,1359.8793,759.09863 Z"/></g></g></svg>